<?xml version="1.0" encoding="utf-8"?>
<!-- Generator: Adobe Illustrator 16.0.0, SVG Export Plug-In . SVG Version: 6.00 Build 0)  -->
<!DOCTYPE svg PUBLIC "-//W3C//DTD SVG 1.1//EN" "http://www.w3.org/Graphics/SVG/1.1/DTD/svg11.dtd">
<svg version="1.1" id="Layer_1" xmlns="http://www.w3.org/2000/svg" xmlns:xlink="http://www.w3.org/1999/xlink" x="0px" y="0px"
	 width="26.296px" height="26.04px" viewBox="0 0 26.296 26.04" enable-background="new 0 0 26.296 26.04" xml:space="preserve">
<path d="M18.375,18.849h-2.703v2.701h2.703V18.849z M14.568,11.618h-2.701v2.702h2.701V11.618z M18.375,15.233h-2.703v2.701h2.703
	V15.233z M22.18,11.618h-2.701v2.702h2.701V11.618z M14.568,15.233h-2.701v2.701h2.701V15.233z M18.375,11.618h-2.703v2.702h2.703
	V11.618z M22.18,15.233h-2.701v2.701h2.701V15.233z M6.956,18.849H4.255v2.701h2.701V18.849z M6.956,15.233H4.255v2.701h2.701
	V15.233z M21.485,2.094V3.28c0.467,0.412,0.762,1.013,0.762,1.684c0,1.243-1.008,2.25-2.25,2.25c-1.244,0-2.251-1.008-2.251-2.25
	c0-0.671,0.296-1.272,0.761-1.684V2.094H7.993V3.28c0.466,0.412,0.761,1.013,0.761,1.684c0,1.243-1.008,2.25-2.25,2.25
	c-1.243,0-2.25-1.008-2.25-2.25c0-0.671,0.295-1.272,0.762-1.684V2.094H0V26.04h26.296V2.094H21.485z M23.895,23.638H2.402V8.678
	h21.493V23.638z M10.764,11.618H8.061v2.702h2.703V11.618z M10.764,18.849H8.061v2.701h2.703V18.849z M14.568,18.849h-2.701v2.701
	h2.701V18.849z M10.764,15.233H8.061v2.701h2.703V15.233z M6.503,6.275c0.619,0,1.12-0.502,1.12-1.121V1.12
	C7.624,0.501,7.122,0,6.503,0s-1.12,0.501-1.12,1.12v4.035C5.383,5.773,5.885,6.275,6.503,6.275z M19.997,6.275
	c0.618,0,1.119-0.502,1.119-1.121V1.12c0-0.619-0.501-1.12-1.119-1.12c-0.619,0-1.121,0.501-1.121,1.12v4.035
	C18.875,5.773,19.377,6.275,19.997,6.275z"/>
</svg>
