<?xml version="1.0" encoding="utf-8"?>
<!-- Generator: Adobe Illustrator 16.0.0, SVG Export Plug-In . SVG Version: 6.00 Build 0)  -->
<!DOCTYPE svg PUBLIC "-//W3C//DTD SVG 1.1//EN" "http://www.w3.org/Graphics/SVG/1.1/DTD/svg11.dtd">
<svg version="1.1" id="Layer_1" xmlns="http://www.w3.org/2000/svg" xmlns:xlink="http://www.w3.org/1999/xlink" x="0px" y="0px"
	 width="82px" height="82px" viewBox="9 9 82 82" enable-background="new 9 9 82 82" xml:space="preserve">
<path d="M49.842,9.132c-22.521,0-40.776,18.256-40.776,40.774c0,22.52,18.255,40.776,40.776,40.776
	c22.52,0,40.775-18.257,40.775-40.776C90.617,27.388,72.361,9.132,49.842,9.132z M72.631,41.545L48.327,65.848
	c-0.001,0.003-0.003,0.006-0.006,0.009c-1.021,1.021-2.36,1.531-3.701,1.531c-1.337,0-2.677-0.509-3.699-1.531
	c-0.001-0.003-0.001-0.003-0.003-0.006L27.365,52.3c-2.042-2.044-2.042-5.356,0-7.4c2.044-2.042,5.358-2.042,7.401,0l9.857,9.856
	l20.612-20.612c2.043-2.042,5.354-2.042,7.398,0C74.677,36.187,74.677,39.5,72.631,41.545z"/>
</svg>
