<?xml version="1.0" encoding="utf-8"?>
<!-- Generator: Adobe Illustrator 16.0.0, SVG Export Plug-In . SVG Version: 6.00 Build 0)  -->
<!DOCTYPE svg PUBLIC "-//W3C//DTD SVG 1.1//EN" "http://www.w3.org/Graphics/SVG/1.1/DTD/svg11.dtd">
<svg version="1.1" id="Layer_1" xmlns="http://www.w3.org/2000/svg" xmlns:xlink="http://www.w3.org/1999/xlink" x="0px" y="0px"
	 width="100px" height="100px" viewBox="0 0 100 100" enable-background="new 0 0 100 100" xml:space="preserve">
<g>
	<path fill="none" d="M100,50c0-27.614-22.386-50-50-50C22.386,0,0,22.386,0,50s22.386,50,50,50C77.614,100,100,77.614,100,50z
		 M50,90c-22.091,0-40-17.908-40-40c0-22.091,17.909-40,40-40c22.092,0,40,17.909,40,40C90,72.092,72.092,90,50,90z"/>
	<path fill="none" d="M74.368,61.388L53.443,48.35V24.162c0-2.868-1.938-5.193-4.327-5.193c-2.391,0-4.328,2.326-4.328,5.193v25.966
		c0,0.374,0.036,0.737,0.099,1.09c0.066,1.612,0.978,3.243,2.581,4.242l22.039,13.731c2.434,1.517,5.495,0.999,6.838-1.154
		C77.687,65.882,76.803,62.904,74.368,61.388z"/>
</g>
</svg>
