<?xml version="1.0" encoding="utf-8"?>
<!-- Generator: Adobe Illustrator 16.0.0, SVG Export Plug-In . SVG Version: 6.00 Build 0)  -->
<!DOCTYPE svg PUBLIC "-//W3C//DTD SVG 1.1//EN" "http://www.w3.org/Graphics/SVG/1.1/DTD/svg11.dtd">
<svg version="1.1" id="Layer_1" xmlns="http://www.w3.org/2000/svg" xmlns:xlink="http://www.w3.org/1999/xlink" x="0px" y="0px"
	 width="78.78px" height="78.672px" viewBox="0 -0.042 78.78 78.672" enable-background="new 0 -0.042 78.78 78.672"
	 xml:space="preserve">
<path d="M78.481,37.787c-0.395-0.829-0.505-2.229-0.244-3.109c0.262-0.883,0.051-2.222-0.473-2.979
	c-0.52-0.757-0.849-2.122-0.727-3.034c0.12-0.911-0.3-2.202-0.932-2.868c-0.636-0.667-1.173-1.963-1.194-2.881
	c-0.022-0.918-0.641-2.129-1.367-2.688c-0.73-0.559-1.465-1.756-1.634-2.66c-0.167-0.904-0.963-2.002-1.771-2.439
	c-0.808-0.438-1.719-1.506-2.024-2.373c-0.309-0.866-1.266-1.826-2.134-2.133c-0.866-0.306-1.934-1.217-2.372-2.026
	c-0.439-0.806-1.536-1.605-2.439-1.772c-0.904-0.167-2.101-0.901-2.66-1.63c-0.561-0.729-1.768-1.346-2.688-1.37
	c-0.919-0.023-2.215-0.561-2.882-1.194c-0.666-0.633-1.957-1.052-2.867-0.933c-0.911,0.121-2.277-0.207-3.033-0.727
	c-0.762-0.521-2.099-0.733-2.98-0.473c-0.881,0.262-2.28,0.152-3.109-0.244c-0.83-0.396-2.186-0.396-3.016,0
	c-0.83,0.396-2.229,0.506-3.109,0.244c-0.882-0.261-2.222-0.048-2.979,0.473c-0.757,0.52-2.122,0.848-3.034,0.727
	c-0.911-0.12-2.201,0.3-2.868,0.933c-0.667,0.633-1.963,1.17-2.881,1.194s-2.129,0.64-2.688,1.37
	c-0.559,0.728-1.755,1.462-2.66,1.63c-0.904,0.167-2.002,0.965-2.439,1.772c-0.438,0.809-1.506,1.72-2.372,2.026
	c-0.867,0.307-1.827,1.267-2.134,2.133c-0.306,0.867-1.217,1.935-2.026,2.373c-0.807,0.437-1.605,1.536-1.772,2.439
	s-0.9,2.101-1.63,2.66c-0.729,0.558-1.346,1.769-1.37,2.688c-0.023,0.918-0.561,2.215-1.194,2.881
	c-0.633,0.666-1.052,1.958-0.932,2.868c0.12,0.912-0.207,2.276-0.728,3.034c-0.521,0.757-0.733,2.096-0.472,2.979
	c0.261,0.88,0.151,2.28-0.245,3.109c-0.396,0.829-0.396,2.187,0,3.017c0.396,0.828,0.506,2.227,0.245,3.109
	c-0.262,0.882-0.049,2.219,0.472,2.979c0.521,0.757,0.848,2.122,0.728,3.033c-0.121,0.911,0.299,2.203,0.932,2.868
	c0.633,0.667,1.17,1.965,1.194,2.882c0.023,0.92,0.64,2.127,1.37,2.687c0.729,0.559,1.462,1.758,1.63,2.661
	c0.167,0.903,0.965,2.002,1.772,2.438c0.809,0.438,1.72,1.507,2.026,2.373c0.307,0.867,1.267,1.826,2.134,2.134
	c0.866,0.305,1.934,1.217,2.372,2.022c0.437,0.808,1.536,1.605,2.439,1.772c0.905,0.168,2.101,0.901,2.66,1.634
	c0.558,0.728,1.769,1.345,2.688,1.367c0.919,0.021,2.215,0.56,2.881,1.193c0.667,0.635,1.958,1.054,2.868,0.933
	c0.912-0.12,2.276,0.208,3.034,0.729c0.757,0.521,2.097,0.731,2.979,0.472c0.88-0.262,2.28-0.151,3.109,0.244
	c0.829,0.395,2.186,0.395,3.016,0c0.829-0.396,2.229-0.506,3.109-0.244c0.882,0.262,2.219,0.051,2.98-0.472
	c0.756-0.521,2.122-0.851,3.033-0.729c0.91,0.121,2.201-0.298,2.867-0.933c0.667-0.634,1.965-1.172,2.882-1.193
	c0.92-0.022,2.129-0.64,2.688-1.367c0.558-0.73,1.756-1.466,2.66-1.634c0.903-0.167,2.002-0.965,2.439-1.772
	c0.437-0.806,1.506-1.718,2.372-2.022c0.866-0.31,1.825-1.267,2.134-2.134c0.308-0.866,1.217-1.934,2.024-2.373
	c0.809-0.437,1.604-1.535,1.771-2.438c0.169-0.903,0.901-2.101,1.634-2.661c0.727-0.56,1.345-1.767,1.367-2.687
	c0.021-0.919,0.559-2.217,1.194-2.882c0.634-0.665,1.054-1.957,0.932-2.868s0.207-2.276,0.727-3.033
	c0.521-0.76,0.732-2.097,0.473-2.979c-0.261-0.883-0.15-2.281,0.244-3.109C78.881,39.974,78.881,38.616,78.481,37.787z
	 M39.443,75.697c-20.07,0-36.401-16.331-36.401-36.402c0-20.07,16.331-36.401,36.401-36.401c20.071,0,36.4,16.331,36.4,36.401
	C75.843,59.365,59.513,75.697,39.443,75.697z"/>
<path d="M39.442,6.99c-17.841,0-32.305,14.463-32.305,32.305c0,17.842,14.464,32.305,32.305,32.305
	c17.841,0,32.304-14.463,32.304-32.305C71.746,21.453,57.283,6.99,39.442,6.99z M50.944,56.003l-11.502-6.048l-11.504,6.048
	l2.196-12.811l-9.307-9.072l12.862-1.869l5.752-11.654l5.751,11.654l12.863,1.869l-9.308,9.072L50.944,56.003z"/>
</svg>
