<?xml version="1.0" encoding="utf-8"?>
<!-- Generator: Adobe Illustrator 16.0.0, SVG Export Plug-In . SVG Version: 6.00 Build 0)  -->
<!DOCTYPE svg PUBLIC "-//W3C//DTD SVG 1.1//EN" "http://www.w3.org/Graphics/SVG/1.1/DTD/svg11.dtd">
<svg version="1.1" id="Layer_1" xmlns="http://www.w3.org/2000/svg" xmlns:xlink="http://www.w3.org/1999/xlink" x="0px" y="0px"
	 width="26.294px" height="22.625px" viewBox="0 0 26.294 22.625" enable-background="new 0 0 26.294 22.625" xml:space="preserve">
<path d="M13.349,0.004C6.089-0.141,0.113,4.334,0.001,9.996c-0.039,1.967,0.637,3.82,1.839,5.406h0
	c2.068,2.656-0.189,7.223-0.189,7.223l6.664-2.869c1.436,0.453,2.996,0.719,4.63,0.75c7.26,0.143,13.236-4.33,13.347-9.992
	C26.404,4.852,20.609,0.146,13.349,0.004z M7.527,11.883c-0.895,0-1.62-0.725-1.62-1.619s0.725-1.619,1.62-1.619
	s1.62,0.725,1.62,1.619S8.421,11.883,7.527,11.883z M12.925,11.883c-0.895,0-1.619-0.725-1.619-1.619s0.725-1.619,1.619-1.619
	s1.62,0.725,1.62,1.619S13.819,11.883,12.925,11.883z M18.323,11.883c-0.895,0-1.62-0.725-1.62-1.619s0.725-1.619,1.62-1.619
	s1.62,0.725,1.62,1.619S19.217,11.883,18.323,11.883z"/>
</svg>
