<?xml version="1.0" encoding="utf-8"?>
<!-- Generator: Adobe Illustrator 16.0.0, SVG Export Plug-In . SVG Version: 6.00 Build 0)  -->
<!DOCTYPE svg PUBLIC "-//W3C//DTD SVG 1.1//EN" "http://www.w3.org/Graphics/SVG/1.1/DTD/svg11.dtd">
<svg version="1.1" id="Layer_3" xmlns="http://www.w3.org/2000/svg" xmlns:xlink="http://www.w3.org/1999/xlink" x="0px" y="0px"
	 width="21.658px" height="21.521px" viewBox="0 0 21.658 21.521" enable-background="new 0 0 21.658 21.521" xml:space="preserve">
<path d="M7.268,8.874c0-0.62,0.502-1.121,1.121-1.121c0.198,0,0.385,0.052,0.546,0.142l2.888-2.888V1.009
	c0-0.558-0.451-1.009-1.01-1.009H1.01C0.452,0,0,0.451,0,1.009v9.805c0,0.557,0.452,1.009,1.01,1.009h3.998
	c0.004-0.003,0.006-0.006,0.009-0.01L7.409,9.42C7.32,9.258,7.268,9.072,7.268,8.874z M3.433,9.995
	c-0.619,0-1.122-0.501-1.122-1.121s0.503-1.121,1.122-1.121s1.122,0.501,1.122,1.121S4.052,9.995,3.433,9.995z M2.311,5.911
	c0-0.62,0.503-1.122,1.122-1.122s1.122,0.502,1.122,1.122c0,0.619-0.503,1.121-1.122,1.121S2.311,6.53,2.311,5.911z M3.433,4.069
	C2.813,4.068,2.311,3.566,2.311,2.947s0.503-1.121,1.122-1.121s1.122,0.502,1.122,1.121C4.555,3.567,4.052,4.068,3.433,4.069z
	 M8.389,1.826c0.619,0,1.122,0.502,1.122,1.121S9.008,4.069,8.389,4.069C7.77,4.068,7.268,3.566,7.268,2.947S7.77,1.826,8.389,1.826
	z M8.389,4.789c0.621,0,1.121,0.502,1.122,1.122C9.51,6.53,9.01,7.032,8.389,7.032c-0.619,0-1.121-0.502-1.121-1.121
	C7.268,5.291,7.77,4.789,8.389,4.789z M21.362,12.865L14.43,5.934c-0.395-0.395-1.033-0.395-1.427-0.001l-6.934,6.933
	c-0.394,0.395-0.394,1.033,0,1.428l6.934,6.933c0.394,0.395,1.032,0.395,1.428,0l6.932-6.933
	C21.757,13.898,21.757,13.26,21.362,12.865z M10.661,14.374c-0.218,0.219-0.507,0.328-0.791,0.328H9.869
	c-0.287,0-0.575-0.109-0.793-0.328c-0.22-0.218-0.33-0.507-0.328-0.793c-0.002-0.285,0.108-0.574,0.328-0.792
	c0.218-0.219,0.506-0.329,0.793-0.329c0.285,0,0.573,0.109,0.792,0.329l-0.21,0.21l0.211-0.21c0.217,0.218,0.327,0.507,0.327,0.792
	C10.989,13.867,10.879,14.155,10.661,14.374z M14.509,18.221c-0.218,0.216-0.506,0.327-0.791,0.327h-0.001
	c-0.287,0-0.575-0.11-0.794-0.329s-0.329-0.506-0.327-0.793c-0.002-0.285,0.108-0.575,0.327-0.792
	c0.219-0.218,0.507-0.329,0.794-0.329c0.285,0,0.574,0.11,0.792,0.329c0.218,0.218,0.329,0.507,0.328,0.792
	C14.838,17.713,14.727,18,14.509,18.221z M12.588,13.581c0-0.285,0.109-0.575,0.328-0.792c0.217-0.219,0.507-0.329,0.792-0.329
	c0.286,0,0.575,0.11,0.794,0.329c0.219,0.218,0.328,0.507,0.328,0.793c0,0.285-0.109,0.574-0.328,0.792
	c-0.219,0.219-0.506,0.328-0.791,0.328h-0.003c-0.286,0-0.575-0.109-0.792-0.328C12.697,14.156,12.588,13.867,12.588,13.581z
	 M14.509,10.524c-0.218,0.218-0.506,0.329-0.791,0.329h-0.001c-0.287,0-0.575-0.11-0.794-0.329s-0.329-0.507-0.329-0.793
	s0.11-0.575,0.329-0.793s0.507-0.329,0.794-0.328c0.285-0.001,0.574,0.108,0.793,0.328c0.219,0.219,0.328,0.507,0.327,0.793
	C14.838,10.018,14.727,10.305,14.509,10.524z M18.355,14.374c-0.217,0.219-0.505,0.328-0.79,0.328h-0.002
	c-0.286,0.001-0.575-0.109-0.793-0.328c-0.219-0.218-0.329-0.507-0.329-0.792c0-0.286,0.11-0.575,0.329-0.793
	c0.218-0.22,0.507-0.329,0.793-0.329s0.574,0.11,0.792,0.328l-0.209,0.211l0.209-0.21c0.219,0.218,0.329,0.507,0.329,0.792
	S18.574,14.155,18.355,14.374z"/>
</svg>
