<?xml version="1.0" encoding="utf-8"?>
<!-- Generator: Adobe Illustrator 16.0.0, SVG Export Plug-In . SVG Version: 6.00 Build 0)  -->
<!DOCTYPE svg PUBLIC "-//W3C//DTD SVG 1.1//EN" "http://www.w3.org/Graphics/SVG/1.1/DTD/svg11.dtd">
<svg version="1.1" id="Layer_1" xmlns="http://www.w3.org/2000/svg" xmlns:xlink="http://www.w3.org/1999/xlink" x="0px" y="0px"
	 width="147.42px" height="42.305px" viewBox="0 0 147.42 42.305" enable-background="new 0 0 147.42 42.305" xml:space="preserve">
<g>
	<path fill="#FFFFFF" d="M94.346,9.463c-0.86,0-1.387,0.76-1.387,1.835c0,1.054,0.547,1.773,1.363,1.773
		c0.731,0,1.246-0.633,1.246-1.386v-0.869C95.568,10.086,95.086,9.463,94.346,9.463z"/>
	<path fill="#FFFFFF" d="M52.139,21.13h-0.043c-0.146,0.627-0.381,1.553-0.701,2.776l-1.224,3.847h3.957l-1.245-3.847
		C52.75,23.514,52.502,22.587,52.139,21.13z"/>
	<path fill="#FFFFFF" d="M110.838,24.78c-0.947,0-1.672,0.421-2.166,1.265c-0.422,0.698-0.633,1.549-0.633,2.549
		c0,0.977,0.211,1.813,0.633,2.51c0.511,0.844,1.225,1.266,2.145,1.266c0.902,0,1.609-0.431,2.122-1.288
		c0.436-0.714,0.652-1.555,0.652-2.53c0-0.972-0.212-1.808-0.632-2.506C112.463,25.201,111.756,24.78,110.838,24.78z"/>
	<path fill="#FFFFFF" d="M57.261,9.406c-0.84,0-1.376,0.785-1.376,1.882c0,1.074,0.547,1.86,1.363,1.86s1.364-0.84,1.364-1.882
		C58.612,10.203,58.074,9.406,57.261,9.406z"/>
	<path fill="#FFFFFF" d="M82.003,9.406c-0.839,0-1.376,0.785-1.376,1.882c0,1.074,0.551,1.86,1.363,1.86
		c0.818,0,1.365-0.84,1.365-1.882C83.355,10.203,82.82,9.406,82.003,9.406z"/>
	<path fill="#FFFFFF" d="M88.976,12.095v-0.807c-1.289,0-1.935,0.311-1.935,1.053c0,0.548,0.332,0.815,0.795,0.815
		C88.426,13.156,88.976,12.706,88.976,12.095z"/>
	<path fill="#FFFFFF" d="M65.453,24.934c-0.583,0-1.112,0.194-1.583,0.58c-0.476,0.386-0.786,0.893-0.931,1.52
		c-0.072,0.292-0.11,0.53-0.11,0.719v1.772c0,0.771,0.237,1.423,0.711,1.958c0.474,0.531,1.091,0.798,1.847,0.798
		c0.891,0,1.582-0.345,2.076-1.027c0.498-0.687,0.745-1.59,0.745-2.712c0-1.033-0.231-1.889-0.699-2.559
		C66.998,25.284,66.312,24.934,65.453,24.934z"/>
	<path fill="#FFFFFF" d="M130.968,9.354c-0.666,0-1.194,0.579-1.271,1.376h2.418C132.115,9.923,131.709,9.354,130.968,9.354z"/>
	<path fill="#FFFFFF" d="M104.127,13.148c0.818,0,1.366-0.84,1.366-1.882c0-1.063-0.538-1.86-1.354-1.86
		c-0.837,0-1.375,0.785-1.375,1.882C102.764,12.362,103.312,13.148,104.127,13.148z"/>
	<path fill="#FFFFFF" d="M147.42,38.065V4.247c0-2.343-1.896-4.247-4.244-4.247H4.25C1.904,0,0,1.904,0,4.247v33.818
		c0,2.342,1.904,4.239,4.25,4.239h138.926C145.523,42.305,147.42,40.407,147.42,38.065L147.42,38.065z M131.049,8.548
		c1.336,0,2.172,0.988,2.172,2.483c0.002,0.202-0.008,0.387-0.041,0.524h-3.482c0.021,0.988,0.678,1.548,1.646,1.548
		c0.514,0,0.987-0.085,1.406-0.248l0.18,0.808c-0.492,0.213-1.074,0.321-1.75,0.321c-1.633,0-2.601-1.031-2.601-2.631
		C128.579,9.752,129.569,8.548,131.049,8.548z M109.379,8.665l0.053,0.807h0.032c0.312-0.559,0.946-0.914,1.655-0.914
		c1.097,0,1.816,0.837,1.816,2.202v3.13h-1.162v-3c0-0.924-0.354-1.387-1.052-1.387c-0.688,0-1.159,0.592-1.159,1.278v3.108H108.4
		v-3.73c0-0.461-0.01-0.957-0.043-1.494H109.379z M104.181,8.558c1.506,0,2.515,1.086,2.515,2.679c0,1.63-1.042,2.771-2.602,2.771
		c-1.523,0-2.512-1.141-2.512-2.687C101.582,9.708,102.592,8.558,104.181,8.558z M76.568,6.271h1.16v7.618h-1.16V6.271z
		 M62.144,8.666l0.591,2.483c0.14,0.59,0.257,1.147,0.354,1.675h0.022c0.085-0.438,0.226-0.987,0.429-1.663l0.741-2.495h0.947
		l0.71,2.439c0.17,0.593,0.312,1.173,0.42,1.722h0.031c0.074-0.538,0.192-1.107,0.354-1.722l0.634-2.439h1.14l0,0l0,0l0,0
		l-1.634,5.224h-1.063l-0.677-2.269c-0.169-0.57-0.311-1.129-0.42-1.688h-0.021c-0.085,0.568-0.247,1.141-0.421,1.688l-0.719,2.269
		h-1.074l-1.537-5.224H62.144z M47.377,6.742c0.613-0.096,1.278-0.15,1.999-0.15c2.706,0,3.954,1.33,3.954,3.503
		c0,2.506-1.473,3.857-4.255,3.857c-0.657,0-1.226-0.033-1.698-0.087V6.742z M26.117,8.051c1.007-1.184,2.759-2.089,4.16-2.153
		c0.184,1.673-0.479,3.317-1.446,4.529c-1.011,1.19-2.626,2.103-4.198,1.985C24.427,10.803,25.223,9.095,26.117,8.051z
		 M34.192,30.639c-1.162,1.734-2.378,3.432-4.31,3.462c-1.875,0.043-2.506-1.104-4.657-1.104c-2.171,0-2.843,1.073-4.644,1.146
		c-1.838,0.067-3.244-1.851-4.446-3.572c-2.404-3.51-4.274-9.894-1.766-14.235c1.217-2.133,3.433-3.504,5.8-3.541
		c1.844-0.036,3.553,1.244,4.685,1.244c1.107,0,3.222-1.531,5.399-1.303c0.911,0.027,3.505,0.358,5.177,2.8
		c-0.134,0.078-3.089,1.815-3.057,5.384c0.037,4.277,3.741,5.692,3.788,5.707C36.138,26.727,35.58,28.668,34.192,30.639z
		 M55.922,33.897l-1.379-4.33h-4.786l-1.313,4.33h-2.449l4.745-14.736h2.931l4.766,14.736H55.922z M57.215,14.007
		c-1.524,0-2.514-1.141-2.514-2.687c0-1.612,1.009-2.763,2.599-2.763c1.507,0,2.517,1.086,2.517,2.679
		C59.816,12.866,58.774,14.007,57.215,14.007z M69.139,32.738c-0.877,0.932-1.971,1.399-3.273,1.399
		c-1.408,0-2.421-0.502-3.033-1.508v5.575H60.47v-11.44c0-1.135-0.029-2.298-0.087-3.492h2.076l0.132,1.685h0.045
		c0.787-1.269,1.981-1.902,3.583-1.902c1.256,0,2.301,0.494,3.139,1.485c0.836,0.993,1.256,2.296,1.256,3.914
		C70.613,30.261,70.123,31.69,69.139,32.738z M71.154,10.781v3.108h-1.158v-3.73c0-0.461-0.012-0.957-0.045-1.494h1.021l0.054,0.807
		h0.032c0.312-0.559,0.945-0.914,1.656-0.914c1.096,0,1.814,0.84,1.814,2.204v3.128l0,0h-1.16v-3c0-0.924-0.354-1.387-1.054-1.387
		C71.627,9.503,71.154,10.095,71.154,10.781z M81.361,32.738c-0.881,0.932-1.973,1.399-3.277,1.399
		c-1.406,0-2.418-0.502-3.033-1.508v5.575h-2.361v-11.44c0-1.135-0.03-2.298-0.088-3.492h2.077l0.132,1.685h0.044
		c0.786-1.269,1.981-1.902,3.587-1.902c1.25,0,2.298,0.494,3.137,1.485c0.835,0.993,1.256,2.296,1.256,3.914
		C82.834,30.261,82.342,31.69,81.361,32.738z M81.959,14.007c-1.523,0-2.514-1.141-2.514-2.687c0-1.612,1.012-2.763,2.602-2.763
		c1.503,0,2.514,1.086,2.514,2.679C84.561,12.866,83.518,14.007,81.959,14.007z M85.891,12.471c0-1.29,1.117-1.957,3.052-1.957
		v-0.096c0-0.687-0.362-1.03-1.084-1.03c-0.515,0-0.968,0.128-1.364,0.387L86.258,9.01c0.482-0.3,1.086-0.452,1.793-0.452
		c1.364,0,2.053,0.722,2.053,2.161v1.925c0,0.525,0.022,0.934,0.076,1.246h-1.045l0,0l-0.084-0.602H89.02
		c-0.355,0.481-0.872,0.719-1.528,0.719C86.557,14.007,85.891,13.351,85.891,12.471z M95.188,32.825
		c-0.959,0.86-2.299,1.291-4.014,1.291c-1.586,0-2.857-0.308-3.816-0.919l0.547-1.969c1.034,0.614,2.172,0.919,3.409,0.919
		c0.891,0,1.582-0.2,2.077-0.602c0.494-0.398,0.744-0.937,0.744-1.604c0-0.599-0.206-1.101-0.612-1.51
		c-0.41-0.409-1.085-0.787-2.033-1.138c-2.58-0.962-3.87-2.367-3.87-4.22c0-1.208,0.455-2.199,1.365-2.974
		c0.911-0.771,2.117-1.158,3.618-1.158c1.342,0,2.459,0.233,3.346,0.699l-0.593,1.926c-0.834-0.451-1.777-0.68-2.829-0.68
		c-0.833,0-1.487,0.207-1.954,0.615c-0.393,0.363-0.593,0.807-0.593,1.334c0,0.581,0.228,1.064,0.679,1.442
		c0.393,0.348,1.109,0.729,2.143,1.136c1.27,0.513,2.201,1.106,2.799,1.792c0.598,0.685,0.896,1.538,0.896,2.557
		C96.496,31.02,96.059,32.038,95.188,32.825z M95.74,13.89l-0.053-0.84h-0.032c-0.334,0.634-0.895,0.957-1.677,0.957
		c-1.259,0-2.191-1.108-2.191-2.665c0-1.634,0.966-2.784,2.285-2.784c0.7,0,1.195,0.236,1.473,0.71h0.023V6.271h1.162v6.209
		c0,0.505,0.013,0.979,0.043,1.409H95.74z M104.322,25.044h-2.602v5.158c0,1.312,0.457,1.967,1.377,1.967
		c0.422,0,0.772-0.035,1.05-0.109l0.063,1.792c-0.463,0.175-1.076,0.262-1.836,0.262c-0.931,0-1.66-0.283-2.186-0.852
		c-0.523-0.569-0.787-1.523-0.787-2.866v-5.354h-1.551v-1.771h1.551v-1.945l2.318-0.7v2.646h2.602V25.044z M114.639,32.52
		c-0.975,1.079-2.271,1.618-3.889,1.618c-1.562,0-2.803-0.518-3.729-1.551c-0.928-1.036-1.389-2.339-1.389-3.914
		c0-1.646,0.477-2.995,1.432-4.045c0.956-1.048,2.243-1.573,3.859-1.573c1.56,0,2.812,0.519,3.76,1.552
		c0.904,1.007,1.355,2.301,1.355,3.891C116.039,30.131,115.572,31.471,114.639,32.52z M117.562,8.666h0.764V7.711l1.141-0.346v1.3
		h1.275v0.871h-1.275v2.537c0,0.645,0.223,0.967,0.675,0.967c0.204,0,0.376-0.021,0.515-0.055l0.033,0.882
		c-0.226,0.088-0.526,0.131-0.902,0.131c-0.914,0-1.461-0.507-1.461-1.828V9.536h-0.764V8.666z M123.714,25.35L123.714,25.35
		c-0.233-0.045-0.481-0.065-0.743-0.065c-0.83,0-1.473,0.311-1.925,0.94c-0.392,0.554-0.589,1.252-0.589,2.099v5.574h-2.36v-7.279
		c0-1.225-0.022-2.34-0.069-3.346h2.059l0.086,2.032h0.064c0.249-0.698,0.643-1.26,1.182-1.682c0.525-0.381,1.094-0.568,1.705-0.568
		c0.219,0,0.415,0.016,0.591,0.042V25.35L123.714,25.35L123.714,25.35z M123.513,10.74v3.149h-1.159V6.271h1.159v3.135h0.022
		c0.365-0.569,0.895-0.849,1.57-0.849c1.105,0,1.781,0.859,1.781,2.224v3.108h-1.16v-2.979c0-0.934-0.353-1.405-1.053-1.405
		C124.073,9.506,123.513,9.912,123.513,10.74z M134.186,29.152h-7.08c0.026,1.05,0.369,1.854,1.026,2.408
		c0.597,0.492,1.368,0.741,2.316,0.741c1.048,0,2.005-0.167,2.865-0.502l0.37,1.637c-1.006,0.439-2.193,0.657-3.562,0.657
		c-1.648,0-2.942-0.483-3.882-1.453c-0.939-0.969-1.41-2.271-1.41-3.903c0-1.601,0.437-2.935,1.312-3.998
		c0.917-1.138,2.155-1.705,3.715-1.705c1.531,0,2.69,0.567,3.478,1.705c0.624,0.901,0.938,2.018,0.938,3.343
		C134.273,28.504,134.244,28.86,134.186,29.152z"/>
	<path fill="#FFFFFF" d="M131.562,25.656c-0.408-0.657-1.037-0.986-1.88-0.986c-0.772,0-1.4,0.32-1.88,0.962
		c-0.393,0.511-0.626,1.125-0.697,1.836h4.916C132.038,26.77,131.883,26.166,131.562,25.656z"/>
	<path fill="#FFFFFF" d="M77.674,24.934c-0.584,0-1.112,0.194-1.586,0.58c-0.475,0.386-0.783,0.893-0.929,1.52
		c-0.071,0.292-0.11,0.53-0.11,0.719v1.772c0,0.771,0.238,1.423,0.709,1.958c0.475,0.528,1.09,0.798,1.85,0.798
		c0.89,0,1.582-0.345,2.076-1.027c0.495-0.687,0.744-1.59,0.744-2.712c0-1.033-0.234-1.889-0.7-2.559
		C79.217,25.284,78.533,24.934,77.674,24.934z"/>
	<path fill="#FFFFFF" d="M52.104,10.126c0-1.684-0.914-2.62-2.634-2.62c-0.366,0-0.676,0.021-0.935,0.075v5.415
		c0.14,0.022,0.407,0.032,0.784,0.032C51.094,13.028,52.104,12.019,52.104,10.126z"/>
</g>
</svg>
