<?xml version="1.0" encoding="utf-8"?>
<!-- Generator: Adobe Illustrator 16.0.0, SVG Export Plug-In . SVG Version: 6.00 Build 0)  -->
<!DOCTYPE svg PUBLIC "-//W3C//DTD SVG 1.1//EN" "http://www.w3.org/Graphics/SVG/1.1/DTD/svg11.dtd">
<svg version="1.1" id="Layer_1" xmlns="http://www.w3.org/2000/svg" xmlns:xlink="http://www.w3.org/1999/xlink" x="0px" y="0px"
	 width="41.349px" height="24.305px" viewBox="0 0 41.349 24.305" enable-background="new 0 0 41.349 24.305" xml:space="preserve">
<path d="M41.286,20.301c-0.436-1.264-1.877-1.443-3.082-1.951c-1.322-0.559-2.787-1.205-4.107-1.746
	c-0.375-0.104-0.752-0.205-1.129-0.309c-0.449-0.309-0.889-1.336-1.129-1.848c-0.24-0.033-0.479-0.068-0.719-0.102
	c0.037-0.791,0.525-0.834,0.719-1.438c0.168-0.533,0.018-1.227,0.285-1.719c0.188-0.344,0.609-0.346,0.818-0.639
	c0.191-0.268,0.318-0.732,0.377-1.059c0.109-0.596,0.203-1.412-0.08-2.004c-0.162-0.34-0.266-0.373-0.311-0.785
	c-0.055-0.5,0.148-2.131,0.156-2.484c0.02-0.914-0.002-0.988-0.223-1.879c0,0-0.27-0.809-0.691-1.051l-0.84-0.145l-0.52-0.482
	c-2.092-1.287-4.336-0.385-5.537,0.104c-1.73,0.562-2.824,2.256-2.061,5.879c0.131,0.617-0.338,0.895-0.309,1.232
	c0.068,0.736,0.082,2.512,0.779,2.949c0.064,0.039,0.559,0.164,0.557,0.131c0.068,0.719,0.137,1.438,0.205,2.156
	c0.174,0.477,0.592,0.529,0.713,1.205l-0.535,0.129c-0.24,0.512-0.68,1.539-1.129,1.848c-0.377,0.104-0.754,0.205-1.129,0.309
	c-0.544,0.223-1.119,0.469-1.693,0.715c-0.573-0.246-1.148-0.492-1.692-0.715c-0.375-0.104-0.752-0.205-1.129-0.309
	c-0.449-0.309-0.889-1.336-1.129-1.848c-0.24-0.033-0.479-0.068-0.719-0.102c0.037-0.791,0.525-0.834,0.719-1.438
	c0.168-0.533,0.018-1.227,0.285-1.719c0.188-0.344,0.609-0.346,0.818-0.639c0.191-0.268,0.318-0.732,0.377-1.059
	c0.109-0.596,0.203-1.412-0.08-2.004c-0.162-0.34-0.266-0.373-0.311-0.785c-0.055-0.5,0.148-2.131,0.156-2.484
	c0.02-0.914-0.002-0.988-0.223-1.879c0,0-0.27-0.809-0.691-1.051l-0.84-0.145l-0.52-0.482c-2.092-1.287-4.336-0.385-5.537,0.104
	c-1.73,0.562-2.824,2.256-2.061,5.879C8.229,7.262,7.76,7.539,7.789,7.877c0.068,0.736,0.082,2.512,0.779,2.949
	c0.064,0.039,0.559,0.164,0.557,0.131c0.068,0.719,0.137,1.438,0.205,2.156c0.174,0.477,0.592,0.529,0.713,1.205l-0.535,0.129
	c-0.24,0.512-0.68,1.539-1.129,1.848C8.002,16.398,7.625,16.5,7.25,16.604c-1.32,0.541-2.785,1.188-4.107,1.746
	c-1.205,0.508-2.646,0.688-3.08,1.951c0,0.855-0.082,2.881-0.059,4.004H15.12h11.108h15.116
	C41.366,23.182,41.286,21.156,41.286,20.301z"/>
</svg>
