<?xml version="1.0" encoding="utf-8"?>
<!-- Generator: Adobe Illustrator 16.0.0, SVG Export Plug-In . SVG Version: 6.00 Build 0)  -->
<!DOCTYPE svg PUBLIC "-//W3C//DTD SVG 1.1//EN" "http://www.w3.org/Graphics/SVG/1.1/DTD/svg11.dtd">
<svg version="1.1" id="Layer_1" xmlns="http://www.w3.org/2000/svg" xmlns:xlink="http://www.w3.org/1999/xlink" x="0px" y="0px"
	 width="18.72px" height="12.961px" viewBox="0 0 18.72 12.961" enable-background="new 0 0 18.72 12.961" xml:space="preserve">
<path fill="none" d="M9.792,1.248C9.913,1.723,9.924,1.762,9.914,2.25C9.909,2.438,9.798,3.308,9.828,3.575
	c0.025,0.22,0.082,0.238,0.17,0.419c0.155,0.315,0.104,0.751,0.044,1.068C10.01,5.236,9.94,5.484,9.835,5.626
	C9.721,5.783,9.489,5.784,9.387,5.968C9.24,6.23,9.322,6.6,9.23,6.884C9.124,7.206,8.856,7.229,8.836,7.651
	C8.968,7.668,9.099,7.687,9.23,7.705C9.362,7.978,9.603,8.526,9.849,8.69c0.207,0.055,0.414,0.109,0.619,0.165
	c0.724,0.289,0.992,0.633,1.717,0.931c0.661,0.271,1.482,0.733,1.721,1.408c0,0.457-0.007,1.776-0.599,1.767H0.599
	C0.025,12.97,0,11.65,0,11.194c0.238-0.674,1.658-1.137,2.319-1.408c0.725-0.298,0.994-0.643,1.717-0.931
	C4.242,8.8,4.449,8.746,4.655,8.69c0.246-0.165,0.487-0.712,0.619-0.985l0.294-0.069c-0.066-0.36-0.296-0.389-0.391-0.643
	C5.139,6.61,5.102,6.227,5.064,5.844c0.001,0.018-0.27-0.049-0.305-0.07c-0.382-0.233-0.39-1.18-0.428-1.573
	c-0.016-0.18,0.241-0.328,0.169-0.657c-0.419-1.932,0.181-2.835,1.13-3.135C6.29,0.147,7.52-0.333,8.667,0.353L8.952,0.61
	l0.461,0.077C9.644,0.816,9.792,1.248,9.792,1.248z"/>
<path fill-rule="evenodd" clip-rule="evenodd" fill="none" d="M16.046,1.891v5.4c0,0.447-0.359,0.81-0.802,0.81
	c-0.443,0-0.803-0.363-0.803-0.81v-5.4c0-0.448,0.359-0.81,0.803-0.81C15.687,1.081,16.046,1.443,16.046,1.891z"/>
<path fill-rule="evenodd" clip-rule="evenodd" fill="none" d="M12.569,3.781h5.349c0.443,0,0.802,0.363,0.802,0.81
	s-0.359,0.81-0.802,0.81h-5.349c-0.443,0-0.802-0.363-0.802-0.81S12.126,3.781,12.569,3.781z"/>
</svg>
