<?xml version="1.0" encoding="utf-8"?>
<!-- Generator: Adobe Illustrator 16.0.0, SVG Export Plug-In . SVG Version: 6.00 Build 0)  -->
<!DOCTYPE svg PUBLIC "-//W3C//DTD SVG 1.1//EN" "http://www.w3.org/Graphics/SVG/1.1/DTD/svg11.dtd">
<svg version="1.1" id="Layer_2" xmlns="http://www.w3.org/2000/svg" xmlns:xlink="http://www.w3.org/1999/xlink" x="0px" y="0px"
	 width="527.111px" height="529.158px" viewBox="0 0 527.111 529.158" enable-background="new 0 0 527.111 529.158"
	 xml:space="preserve">
<g id="icon">
	<path fill="#4197B5" d="M450.821,0H76.297C34.166,0,0,34.174,0,76.303v374.514c0,42.127,34.166,76.294,76.297,76.294h374.524
		c42.131,0,76.29-34.167,76.29-76.294V76.303C527.111,34.174,492.953,0,450.821,0z M226.049,408.662
		c-2.377,5.816-7.384,14.237-13.125,17.224c-3.802,1.977-9.207-0.585-10.593-4.375c-1.772-4.828,2.012-9.139,4.148-13.136
		c2.546-4.769,3.838-10.343,2.233-15.639c-2.486-8.246-8.928-14.357-14.057-20.977c-11.991-15.466-20.655-34.675-21.498-54.432
		c-0.279-6.482,0.411-13.181,1.907-19.688c11.471,2.164,25.287,4.33,40.923,5.892c-7.987,14.858-5.754,32.986-0.301,48.452
		c4.669,13.22,12.378,25.671,13.272,39.962C229.298,397.549,228.198,403.472,226.049,408.662z M280.875,353.386
		c-1.471,14.326-3.087,28.664-4.803,42.999c-1.749,14.349-3.644,28.686-5.87,43.039c-0.583,3.668-4,6.175-7.69,5.601
		c-2.955-0.457-5.163-2.801-5.611-5.601c-2.217-14.354-4.124-28.69-5.864-43.039c-1.726-14.335-3.331-28.673-4.802-42.999
		c-1.64-16.005-3.134-31.979-4.484-47.959c7.019,0.326,14.307,0.505,21.799,0.505c7.506,0,14.778-0.179,21.812-0.505
		C283.988,321.407,282.504,337.381,280.875,353.386z M354.377,317.328c-0.859,19.757-9.5,38.966-21.506,54.432
		c-5.115,6.619-11.555,12.73-14.037,20.977c-1.605,5.296-0.331,10.87,2.204,15.639c2.131,3.997,5.947,8.308,4.172,13.136
		c-1.385,3.79-6.789,6.352-10.614,4.375c-5.72-2.986-10.715-11.407-13.116-17.224c-2.133-5.19-3.233-11.113-2.897-16.717
		c0.873-14.291,8.604-26.742,13.26-39.962c5.457-15.483,7.688-33.629-0.313-48.492c15.651-1.581,29.481-3.754,40.925-5.925
		C353.975,304.095,354.662,310.806,354.377,317.328z M400.667,256.226c-1.599,8.251-8.77,16.626-16.612,19.147
		c0,0-50.963,16.312-120.507,16.312c-69.533,0-120.494-16.312-120.494-16.312c-8.614-2.77-15.963-11.786-16.939-20.777
		c0-0.004-0.857-7.962-0.857-18.646c0-89.868,61.918-153.933,138.29-153.933c76.381,0,138.301,62.985,138.301,152.838
		C401.849,241.826,402.019,249.355,400.667,256.226z"/>
	<path fill="#4197B5" d="M330.495,130.389c-22.235-18.321-50.523-25.819-79.07-25.1c-1.978,0.056-3.523,1.813-3.5,3.967
		c0.023,2.133,1.604,3.869,3.571,3.9c5.742,0.091,26.641,5.793,51.314,22.202c20.075,13.361,47.125,37.125,62.034,74.51
		c1.537,3.823,6.773,2.502,6.915-1.414c0.146-4.271-0.567-8.836-1.409-13.023C365.27,170.082,350.345,146.747,330.495,130.389z"/>
</g>
</svg>
