<?xml version="1.0" encoding="utf-8"?>
<!-- Generator: Adobe Illustrator 16.0.0, SVG Export Plug-In . SVG Version: 6.00 Build 0)  -->
<!DOCTYPE svg PUBLIC "-//W3C//DTD SVG 1.1//EN" "http://www.w3.org/Graphics/SVG/1.1/DTD/svg11.dtd">
<svg version="1.1" id="Layer_1" xmlns="http://www.w3.org/2000/svg" xmlns:xlink="http://www.w3.org/1999/xlink" x="0px" y="0px"
	 width="216px" height="216px" viewBox="0 0 216 216" enable-background="new 0 0 216 216" xml:space="preserve">
<g>
	<path fill="#007BB6" d="M200,0H15.944C7.145,0,0,6.977,0,15.562v184.852C0,209.016,7.145,216,15.944,216H200
		c8.809,0,16-6.984,16-15.586V15.562C216,6.977,208.809,0,200,0z M64.061,184.062H32.01V80.984h32.051V184.062z M48.037,66.891
		c-10.27,0-18.57-8.324-18.57-18.582c0-10.246,8.301-18.57,18.57-18.57c10.242,0,18.566,8.324,18.566,18.57
		C66.604,58.566,58.279,66.891,48.037,66.891z M184.049,184.062h-32.001v-50.125c0-11.961-0.234-27.336-16.652-27.336
		c-16.672,0-19.215,13.023-19.215,26.469v50.992H84.154V80.984h30.734v14.078h0.438c4.277-8.102,14.73-16.648,30.316-16.648
		c32.418,0,38.407,21.344,38.407,49.109V184.062z"/>
</g>
</svg>
