<?xml version="1.0" encoding="utf-8"?>
<!-- Generator: Adobe Illustrator 16.0.0, SVG Export Plug-In . SVG Version: 6.00 Build 0)  -->
<!DOCTYPE svg PUBLIC "-//W3C//DTD SVG 1.1//EN" "http://www.w3.org/Graphics/SVG/1.1/DTD/svg11.dtd">
<svg version="1.1" id="Layer_1" xmlns="http://www.w3.org/2000/svg" xmlns:xlink="http://www.w3.org/1999/xlink" x="0px" y="0px"
	 width="26.232px" height="24.305px" viewBox="0 0 26.232 24.305" enable-background="new 0 0 26.232 24.305" xml:space="preserve">
<path d="M17.746,2.34c0.221,0.891,0.242,0.965,0.223,1.879c-0.008,0.354-0.211,1.984-0.156,2.484
	c0.045,0.412,0.148,0.445,0.311,0.785c0.283,0.592,0.189,1.408,0.08,2.004c-0.059,0.326-0.186,0.791-0.377,1.059
	c-0.209,0.293-0.631,0.295-0.818,0.639c-0.268,0.492-0.117,1.186-0.285,1.719c-0.193,0.604-0.682,0.646-0.719,1.438
	c0.24,0.033,0.479,0.068,0.719,0.102c0.24,0.512,0.68,1.539,1.129,1.848c0.377,0.104,0.754,0.205,1.129,0.309
	c1.32,0.541,2.785,1.188,4.107,1.746c1.205,0.508,2.646,0.688,3.082,1.951c0,0.855,0.08,2.881,0.059,4.004H0.004
	c-0.023-1.123,0.059-3.148,0.059-4.004c0.434-1.264,1.875-1.443,3.08-1.951c1.322-0.559,2.787-1.205,4.107-1.746
	c0.375-0.104,0.752-0.205,1.129-0.309c0.449-0.309,0.889-1.336,1.129-1.848l0.535-0.129c-0.121-0.676-0.539-0.729-0.713-1.205
	c-0.068-0.719-0.137-1.438-0.205-2.156c0.002,0.033-0.492-0.092-0.557-0.131c-0.697-0.438-0.711-2.213-0.779-2.949
	C7.76,7.539,8.229,7.262,8.098,6.645c-0.764-3.623,0.33-5.316,2.061-5.879c1.201-0.488,3.445-1.391,5.537-0.104l0.52,0.482
	l0.84,0.145C17.477,1.531,17.746,2.34,17.746,2.34z"/>
</svg>
