<?xml version="1.0" encoding="utf-8"?>
<!-- Generator: Adobe Illustrator 16.0.0, SVG Export Plug-In . SVG Version: 6.00 Build 0)  -->
<!DOCTYPE svg PUBLIC "-//W3C//DTD SVG 1.1//EN" "http://www.w3.org/Graphics/SVG/1.1/DTD/svg11.dtd">
<svg version="1.1" id="Capa_1" xmlns="http://www.w3.org/2000/svg" xmlns:xlink="http://www.w3.org/1999/xlink" x="0px" y="0px"
	 width="41.167px" height="43.667px" viewBox="0 0 41.167 43.667" enable-background="new 0 0 41.167 43.667" xml:space="preserve">
<g id="Capa_13">
	<g>
		<path d="M31.912,40.131v-2.713h-0.509v-0.588c0,0,0.8,0.131,0.8-1.773c0-1.898-0.478-3.984-4.578-5.797
			c-0.2-0.088-0.379-0.189-0.543-0.303v-1.479h-0.965c-2.442-6.77-2.272-12.119-2.159-13.604h0.838V12.37h-1.795
			c2.348-0.957,4.006-3.254,4.006-5.946C27.007,2.876,24.13,0,20.582,0s-6.424,2.876-6.424,6.424c0,2.691,1.657,4.989,4.005,5.946
			h-1.792v1.506h0.835c0.114,1.482,0.283,6.834-2.158,13.604h-0.966v1.479c-0.164,0.11-0.342,0.215-0.545,0.303
			c-4.102,1.812-4.575,3.896-4.575,5.797c0,1.904,0.8,1.773,0.8,1.773v0.588H9.253v2.713h-0.73v3.535h24.121v-3.535H31.912z"/>
	</g>
</g>
</svg>
