<?xml version="1.0" encoding="utf-8"?>
<!-- Generator: Adobe Illustrator 16.0.0, SVG Export Plug-In . SVG Version: 6.00 Build 0)  -->
<!DOCTYPE svg PUBLIC "-//W3C//DTD SVG 1.1//EN" "http://www.w3.org/Graphics/SVG/1.1/DTD/svg11.dtd">
<svg version="1.1" id="Layer_1" xmlns="http://www.w3.org/2000/svg" xmlns:xlink="http://www.w3.org/1999/xlink" x="0px" y="0px"
	 width="37.508px" height="41.977px" viewBox="0 0 37.508 41.977" enable-background="new 0 0 37.508 41.977" xml:space="preserve">
<path fill-rule="evenodd" clip-rule="evenodd" fill="#6D1515" d="M28.508,1.552v2h5v25.237l-13,8.763h15v-36H28.508z"/>
<path fill-rule="evenodd" clip-rule="evenodd" fill="#7C2323" d="M29.329,0L0,7.814l8.202,34.162l29.306-7.809L29.329,0z
	 M8.086,34.865L2.125,9.034l25.977-6.921l5.961,25.831L8.086,34.865z"/>
<path fill-rule="evenodd" clip-rule="evenodd" fill="#7C2323" d="M11.477,31.029l2.632-10.035l5.116,4.501l2.581-12.395
	l10.621,12.346L11.477,31.029z"/>
<path fill-rule="evenodd" clip-rule="evenodd" fill="#7C2323" d="M10.776,12.094c1.534-0.409,3.111,0.492,3.521,2.012
	c0.41,1.52-0.503,3.084-2.037,3.493c-1.535,0.409-3.111-0.492-3.521-2.012S9.242,12.502,10.776,12.094z"/>
</svg>
