<?xml version="1.0" encoding="utf-8"?>
<!-- Generator: Adobe Illustrator 16.0.0, SVG Export Plug-In . SVG Version: 6.00 Build 0)  -->
<!DOCTYPE svg PUBLIC "-//W3C//DTD SVG 1.1//EN" "http://www.w3.org/Graphics/SVG/1.1/DTD/svg11.dtd">
<svg version="1.1" id="Layer_1" xmlns="http://www.w3.org/2000/svg" xmlns:xlink="http://www.w3.org/1999/xlink" x="0px" y="0px"
	 width="94.167px" height="94.166px" viewBox="3.135 4.716 94.167 94.166" enable-background="new 3.135 4.716 94.167 94.166"
	 xml:space="preserve">
<g>
	<g>
		<circle fill="none" stroke="#000000" stroke-miterlimit="10" cx="50" cy="51.799" r="43.034"/>
		<path d="M50.219,4.716c-26.004,0-47.084,21.08-47.084,47.083s21.08,47.083,47.084,47.083c26.003,0,47.083-21.08,47.083-47.083
			S76.223,4.716,50.219,4.716z M50.056,92.993C27.305,92.993,8.861,74.55,8.861,51.8s18.443-41.194,41.194-41.194
			c22.75,0,41.194,18.443,41.194,41.194C91.25,74.55,72.807,92.993,50.056,92.993z"/>
	</g>
	<path d="M74.17,49.933c0,1.323-0.504,2.645-1.514,3.653c-2.016,2.019-5.287,2.019-7.307,0L50.404,38.64L35.458,53.586
		c-2.018,2.019-5.29,2.019-7.307,0c-2.018-2.017-2.018-5.289,0-7.307l18.6-18.6c0.969-0.968,2.283-1.513,3.653-1.513
		c1.371,0,2.686,0.545,3.655,1.514l18.598,18.6C73.666,47.289,74.17,48.611,74.17,49.933z"/>
	<path d="M55.571,36.45v36.267c0,2.826-2.313,5.117-5.167,5.117c-2.853,0-5.167-2.291-5.167-5.117V36.45
		c0-2.825,2.313-5.116,5.167-5.116C53.258,31.333,55.571,33.625,55.571,36.45z"/>
</g>
</svg>
