<?xml version="1.0" encoding="utf-8"?>
<!-- Generator: Adobe Illustrator 16.0.0, SVG Export Plug-In . SVG Version: 6.00 Build 0)  -->
<!DOCTYPE svg PUBLIC "-//W3C//DTD SVG 1.1//EN" "http://www.w3.org/Graphics/SVG/1.1/DTD/svg11.dtd">
<svg version="1.1" id="Layer_1" xmlns="http://www.w3.org/2000/svg" xmlns:xlink="http://www.w3.org/1999/xlink" x="0px" y="0px"
	 width="100px" height="100px" viewBox="0 0 100 100" enable-background="new 0 0 100 100" xml:space="preserve">
<g>
	<path d="M99.395,42.19c-0.104-0.688-0.615-1.234-1.287-1.399L92.9,39.535c-3.023-0.723-5.231-2.405-6.191-4.74
		c-0.975-2.331-0.607-5.083,1.023-7.738l2.791-4.561c0.357-0.585,0.324-1.339-0.082-1.894c-3.086-4.247-6.799-7.96-11.047-11.045
		c-0.553-0.405-1.305-0.439-1.893-0.083l-4.559,2.793c-1.664,1.016-3.399,1.546-5.043,1.546c-3.586,0-6.441-2.571-7.446-6.713
		l-1.243-5.21c-0.168-0.667-0.723-1.18-1.402-1.283c-5.146-0.808-10.47-0.808-15.616,0c-0.68,0.103-1.233,0.616-1.391,1.283
		L39.546,7.1c-1.002,4.142-3.859,6.713-7.447,6.713c-1.641,0-3.378-0.53-5.04-1.546l-4.561-2.793
		c-0.585-0.356-1.338-0.322-1.893,0.083c-4.246,3.085-7.958,6.799-11.044,11.045c-0.409,0.555-0.439,1.309-0.084,1.894l2.794,4.561
		c1.631,2.654,1.987,5.407,1.023,7.738c-0.962,2.335-3.16,4.017-6.19,4.74l-5.211,1.256c-0.668,0.165-1.181,0.711-1.286,1.399
		C0.21,44.765,0,47.388,0,49.994c0,2.613,0.21,5.24,0.607,7.811c0.104,0.682,0.617,1.234,1.286,1.393l5.211,1.257
		c3.03,0.729,5.228,2.415,6.19,4.747c0.964,2.335,0.607,5.083-1.023,7.742l-2.794,4.559c-0.355,0.586-0.324,1.338,0.084,1.893
		c3.085,4.246,6.798,7.961,11.044,11.045c0.555,0.41,1.308,0.438,1.893,0.072l4.561-2.781c1.662-1.015,3.399-1.559,5.04-1.559
		c3.588,0,6.445,2.584,7.447,6.725l1.256,5.209c0.158,0.672,0.711,1.174,1.391,1.289c2.573,0.396,5.199,0.605,7.813,0.605
		c2.605,0,5.23-0.209,7.803-0.605c0.68-0.115,1.233-0.617,1.401-1.289l1.243-5.209c1.005-4.141,3.859-6.725,7.447-6.725
		c1.643,0,3.377,0.544,5.041,1.559l4.56,2.781c0.588,0.366,1.34,0.338,1.894-0.072c4.248-3.084,7.961-6.799,11.047-11.045
		c0.406-0.555,0.438-1.307,0.082-1.893l-2.791-4.559c-1.633-2.659-2-5.407-1.024-7.742c0.96-2.332,3.168-4.018,6.19-4.747
		l5.209-1.257c0.67-0.157,1.184-0.711,1.285-1.393c0.397-2.57,0.606-5.197,0.606-7.811C100,47.388,99.791,44.765,99.395,42.19z
		 M96.182,56.154l-4.076,0.98c-4.121,0.993-7.166,3.391-8.559,6.756c-1.391,3.369-0.939,7.209,1.266,10.827l2.198,3.577
		c-2.511,3.273-5.438,6.191-8.714,8.702l-3.576-2.187c-2.195-1.338-4.549-2.051-6.818-2.051c-5.168,0-9.395,3.66-10.764,9.34
		l-0.982,4.08c-4.067,0.532-8.241,0.532-12.31,0l-0.983-4.08c-1.372-5.68-5.597-9.34-10.764-9.34c-2.268,0-4.622,0.713-6.818,2.051
		l-3.577,2.187c-3.271-2.511-6.203-5.429-8.703-8.702l2.176-3.577c2.217-3.618,2.667-7.458,1.275-10.827
		c-1.398-3.365-4.433-5.763-8.552-6.756l-4.082-0.98c-0.271-2.041-0.397-4.1-0.397-6.161c0-2.049,0.127-4.12,0.397-6.152L7.9,42.859
		c4.12-0.994,7.154-3.389,8.552-6.756c1.391-3.367,0.941-7.216-1.275-10.824L13,21.702c2.5-3.274,5.432-6.203,8.703-8.713
		l3.577,2.186c2.197,1.35,4.551,2.061,6.818,2.061c5.167,0,9.392-3.67,10.764-9.34l0.983-4.079c4.069-0.536,8.242-0.536,12.309,0
		l0.982,4.079c1.37,5.67,5.598,9.34,10.776,9.34c2.258,0,4.61-0.71,6.806-2.061l3.577-2.186c3.274,2.51,6.203,5.439,8.714,8.713
		l-2.197,3.577c-2.207,3.608-2.656,7.457-1.267,10.824c1.392,3.367,4.437,5.763,8.558,6.756l4.078,0.982
		c0.264,2.032,0.409,4.103,0.409,6.152C96.592,52.055,96.445,54.113,96.182,56.154z"/>
	<path d="M50.006,64.876c8.2,0,14.874-6.674,14.874-14.882c0-8.201-6.674-14.873-14.874-14.873c-8.211,0-14.882,6.672-14.882,14.873
		C35.125,58.202,41.795,64.876,50.006,64.876z M50.006,38.529c6.316,0,11.463,5.148,11.463,11.465
		c0,6.329-5.146,11.464-11.463,11.464c-6.33,0-11.463-5.136-11.463-11.464C38.543,43.677,43.677,38.529,50.006,38.529z"/>
</g>
</svg>
