<?xml version="1.0" encoding="utf-8"?>
<!-- Generator: Adobe Illustrator 16.0.0, SVG Export Plug-In . SVG Version: 6.00 Build 0)  -->
<!DOCTYPE svg PUBLIC "-//W3C//DTD SVG 1.1//EN" "http://www.w3.org/Graphics/SVG/1.1/DTD/svg11.dtd">
<svg version="1.1" id="Layer_1" xmlns="http://www.w3.org/2000/svg" xmlns:xlink="http://www.w3.org/1999/xlink" x="0px" y="0px"
	 width="16.12px" height="13.92px" viewBox="0 0 16.12 13.92" enable-background="new 0 0 16.12 13.92" xml:space="preserve">
<path fill-rule="evenodd" clip-rule="evenodd" fill="none" d="M11.52,8.64V12h-9.6V4.32h3.36C5.296,3.872,5.924,2.705,6.72,2.4H0.96
	C0.546,2.4,0,2.887,0,3.36v9.6c0,0.473,0.391,0.96,0.96,0.96h11.52c0.5,0,0.96-0.47,0.96-0.96V7.2L11.52,8.64z"/>
<path fill="none" d="M10.56,7.68v-2.4c-0.17,0.027-3.405,0.048-4.32,2.88C5.993,3.189,8.338,2.4,10.56,2.4V0l5.28,3.84L10.56,7.68z"
	/>
</svg>
