<?xml version="1.0" encoding="utf-8"?>
<!-- Generator: Adobe Illustrator 16.0.0, SVG Export Plug-In . SVG Version: 6.00 Build 0)  -->
<!DOCTYPE svg PUBLIC "-//W3C//DTD SVG 1.1//EN" "http://www.w3.org/Graphics/SVG/1.1/DTD/svg11.dtd">
<svg version="1.1" id="Layer_1" xmlns="http://www.w3.org/2000/svg" xmlns:xlink="http://www.w3.org/1999/xlink" x="0px" y="0px"
	 width="27.189px" height="25.951px" viewBox="0 0 27.189 25.951" enable-background="new 0 0 27.189 25.951" xml:space="preserve">
<path d="M27.163,9.851c-0.07-0.216-0.273-0.364-0.502-0.364h-9.596l-2.969-9.122C14.026,0.147,13.823,0,13.595,0
	c-0.229,0-0.432,0.146-0.502,0.363l-2.987,9.123H0.528c-0.229,0-0.432,0.147-0.502,0.364s0.007,0.456,0.19,0.59l7.752,5.646
	L4.981,25.26c-0.07,0.217,0.007,0.456,0.191,0.59c0.185,0.135,0.437,0.135,0.621,0l7.801-5.663l7.786,5.663
	c0.092,0.068,0.201,0.102,0.309,0.102c0.109,0,0.219-0.033,0.311-0.102c0.186-0.135,0.264-0.372,0.193-0.59l-2.988-9.173
	l7.768-5.646C27.157,10.307,27.233,10.067,27.163,9.851z"/>
</svg>
