<?xml version="1.0" standalone="no"?>
<!DOCTYPE svg PUBLIC "-//W3C//DTD SVG 1.1//EN" "http://www.w3.org/Graphics/SVG/1.1/DTD/svg11.dtd" >
<!--
2013-12-21: Created.
-->
<svg xmlns="http://www.w3.org/2000/svg">
<metadata>
Created by FontForge 20120731 at Sat Dec 21 17:23:07 2013
 By Kyle Truscott
Created by Kyle Truscott with FontForge 2.0 (http://fontforge.sf.net)
</metadata>
<defs>
<font id="fontcustom" horiz-adv-x="512" >
  <font-face 
    font-family="fontcustom"
    font-weight="500"
    font-stretch="normal"
    units-per-em="512"
    panose-1="2 0 6 9 0 0 0 0 0 0"
    ascent="448"
    descent="-64"
    bbox="-0.011639 -89.6357 529.046 448.28"
    underline-thickness="25.6"
    underline-position="-51.2"
    unicode-range="U+F100-F121"
  />
    <missing-glyph />
    <glyph glyph-name="uniF100" unicode="&#xf100;" 
d="M34.5596 218.187l259.733 -247.12l-34.4531 -34.96l-259.733 247.094zM51.6797 167.894l-34.3193 34.8262l241.6 245.2l34.3203 -34.8535z" />
    <glyph glyph-name="uniF101" unicode="&#xf101;" 
d="M43.5049 405.504h25.4971c16.999 0 16.999 42.4961 34.002 42.4961h17.0039h0.0410156h0.123047h0.209961h0.15332h0.137695h0.369141h0.18457h0.255859h0.424805h0.0976562h0.573242h0.00976562h0.645508h0.00976562h0.640625h0.0820312h0.552734h0.230469h0.399414
h0.450195h0.164062h0.609375h0.132812h0.456055h0.506836h0.0664062h0.563477h0.383789h0.168945h0.537109h0.364258h0.158203h0.506836h0.451172h0.0400391h0.476562h0.460938h0.189453h0.255859h0.429688h0.415039h0.112305h0.282227h0.374023h0.358398h0.240234
h0.0976562h0.322266h0.301758h0.276367h0.261719h0.0351562h0.205078h0.214844h0.200195h0.173828h0.15332h0.133789h0.107422h0.0869141h0.0615234v0h0.0361328h0.00976562h59.5c16.998 0 16.998 -42.4961 33.9961 -42.4961h161.495
c0 9.38477 7.61328 16.998 16.999 16.998h16.998c9.38965 0 16.998 -7.61328 16.998 -16.998h25.498c23.4697 0 42.501 -19.0312 42.501 -42.501v-254.991c0 -23.4707 -19.0312 -42.501 -42.501 -42.501h-424.96c-23.4648 -0.0107422 -42.4961 19.0254 -42.4961 42.4961
v254.991c0 23.4697 19.0312 42.5059 42.4961 42.5059v0zM341.002 362.998c-70.3994 0 -127.498 -57.0938 -127.498 -127.498c0 -70.4004 57.0928 -127.499 127.498 -127.499c70.4004 0 127.498 57.0938 127.498 127.499
c-0.00488281 70.4102 -57.0977 127.498 -127.498 127.498v0zM103.004 320.502h51.001c9.38477 0 16.998 7.61328 16.998 16.998v8.49902c0 9.39062 -7.61328 16.999 -16.998 16.999h-51.001c-9.38477 0 -16.998 -7.61328 -16.998 -16.999v-8.49902
c-0.00488281 -9.38477 7.61328 -16.998 16.998 -16.998z" />
    <glyph glyph-name="uniF102" unicode="&#xf102;" 
d="M1.41309 365.843l82.7539 82.1572l247.413 -252.971l-253.347 -259.029l-78.2334 79.9912l172.979 174.424z" />
    <glyph glyph-name="uniF103" unicode="&#xf103;" 
d="M256 448c141.39 0 256 -114.618 256 -256c0 -141.39 -114.61 -256 -256 -256c-141.382 0 -256 114.61 -256 256c0 141.382 114.618 256 256 256zM207.909 82.6182l190.11 177.238l-38.6943 41.5078l-149.198 -139.121l-55.2344 59.2207l-40.9043 -38.1348
l55.2256 -59.1943l37.3672 -40.084z" />
    <glyph glyph-name="uniF104" unicode="&#xf104;" 
d="M461.82 399.893c120.686 -98.0713 -7.54004 -258.114 -60.1533 -319.585c-52.6211 -61.4561 -92.8184 -69.7432 -130.221 -65.3682c-52.1582 6.10742 -48.9082 42.3311 -104.032 81.0342c-81.1582 56.9805 -174.377 43.6328 -167.006 169.324
c7.20117 122.849 311.528 256.419 461.412 134.595z" />
    <glyph glyph-name="uniF105" unicode="&#xf105;" 
d="M512 192c0 -141.384 -114.616 -256 -256 -256s-256 114.616 -256 256s114.616 256 256 256s256 -114.616 256 -256zM256 -12.7998c113.111 0 204.8 91.6885 204.8 204.8c0 113.105 -91.6885 204.8 -204.8 204.8c-113.105 0 -204.8 -91.6943 -204.8 -204.8
c0 -113.111 91.6943 -204.8 204.8 -204.8zM380.764 133.693c12.4678 -7.76172 16.9941 -23.0088 10.123 -34.043c-6.87695 -11.0234 -22.5488 -13.6758 -35.0107 -5.9082l-112.84 70.3027c-8.20703 5.11523 -12.877 13.4658 -13.2148 21.7188
c-0.322266 1.80762 -0.506836 3.66602 -0.506836 5.58105v132.946c0 14.6787 9.91797 26.5879 22.1592 26.5879c12.2324 0 22.1543 -11.9043 22.1543 -26.5879v-123.843z" />
    <glyph glyph-name="uniF106" unicode="&#xf106;" 
d="M317.387 205.057l183.903 -174.515c13.5693 -12.8682 13.5693 -33.7354 0 -46.6035l-12.2744 -11.6543c-13.5693 -12.8682 -35.543 -12.8682 -49.1123 0l-183.903 174.516l-183.903 -174.516c-13.5566 -12.8682 -35.543 -12.8682 -49.1123 0l-12.2744 11.6543
c-13.5557 12.8682 -13.5557 33.7354 0 46.6035l183.903 174.515l-184.443 175.042c-13.5557 12.8682 -13.5557 33.7344 0 46.6025l12.2754 11.6543c13.5693 12.8682 35.5557 12.8682 49.1113 0l184.443 -175.041l184.43 175.041c13.5693 12.8682 35.5557 12.8682 49.125 0
l12.2754 -11.6543c13.5557 -12.8682 13.5557 -33.7344 0 -46.6025z" />
    <glyph glyph-name="uniF107" unicode="&#xf107;" 
d="M255.985 -64c-141.412 0 -255.985 114.573 -255.985 255.985s114.573 256.015 255.985 256.015c141.384 0 256.015 -114.573 256.015 -255.985s-114.631 -256.015 -256.015 -256.015zM255.985 314.063l-116.836 -186.841h233.673z" />
    <glyph glyph-name="uniF108" unicode="&#xf108;" 
d="M510.057 202.418c2.59961 -5.3877 2.59961 -14.2139 0 -19.6074c-2.56055 -5.38184 -3.28223 -14.4678 -1.58594 -20.2061c1.68359 -5.73242 0.3125 -14.4219 -3.07422 -19.3604c-3.37891 -4.91992 -5.51758 -13.792 -4.72461 -19.7119
c0.792969 -5.9209 -1.93652 -14.3184 -6.05664 -18.6396c-4.12695 -4.32227 -7.62402 -12.7578 -7.76074 -18.7305c-0.142578 -5.97949 -4.15918 -13.8242 -8.88379 -17.4629c-4.76367 -3.63965 -9.52148 -11.4258 -10.6191 -17.2949
c-1.08594 -5.86816 -6.25293 -13.0039 -11.5107 -15.8447c-5.24414 -2.85254 -11.1523 -9.79395 -13.1543 -15.4219c-2.00781 -5.63477 -8.24023 -11.8545 -13.8682 -13.8691c-5.62891 -1.97559 -12.5762 -7.90332 -15.416 -13.1416
c-2.84082 -5.24414 -9.9834 -10.4307 -15.8516 -11.5166c-5.875 -1.0918 -13.6611 -5.875 -17.2881 -10.6191c-3.63281 -4.72461 -11.4902 -8.74121 -17.4697 -8.88477c-5.95898 -0.135742 -14.3955 -3.63281 -18.7305 -7.75293
c-4.32812 -4.12695 -12.7188 -6.84961 -18.6328 -6.06348c-5.91992 0.792969 -14.7979 -1.35156 -19.7119 -4.73828c-4.94531 -3.39844 -13.6348 -4.77051 -19.3672 -3.06738c-5.71875 1.70312 -14.8174 0.988281 -20.2051 -1.58594
c-5.39453 -2.56738 -14.2139 -2.56738 -19.6016 0s-14.4863 3.28906 -20.2061 1.58594c-5.73242 -1.68359 -14.4404 -0.318359 -19.3604 3.06738c-4.92676 3.38672 -13.791 5.51758 -19.7188 4.73828c-5.91406 -0.786133 -14.3047 1.93652 -18.6396 6.06348
c-4.32812 4.11426 -12.751 7.61719 -18.7236 7.75293c-5.97266 0.143555 -13.8428 4.15332 -17.4697 8.88477c-3.63281 4.76367 -11.4062 9.52734 -17.2871 10.6191c-5.86914 1.08594 -13.0117 6.26562 -15.8516 11.5166c-2.84668 5.23242 -9.78809 11.1592 -15.416 13.1416
c-5.63477 2.00195 -11.874 8.23438 -13.8691 13.8691c-1.98828 5.62793 -7.90918 12.5752 -13.167 15.4219c-5.24512 2.83398 -10.4316 9.97656 -11.5166 15.8447c-1.0918 5.86914 -5.85547 13.6611 -10.5938 17.2949c-4.74414 3.63867 -8.75391 11.4834 -8.90332 17.4629
c-0.15625 5.95996 -3.64648 14.3955 -7.76074 18.7305c-4.11328 4.32129 -6.84277 12.7188 -6.05664 18.6396c0.780273 5.91992 -1.3457 14.792 -4.73145 19.7119c-3.38574 4.93848 -4.77051 13.6279 -3.06738 19.3604c1.69629 5.73242 0.981445 14.8242 -1.59277 20.2061
c-2.57324 5.39355 -2.57324 14.2197 0 19.6074c2.57422 5.3877 3.28906 14.4863 1.59277 20.2061c-1.69629 5.73828 -0.318359 14.4404 3.06738 19.3604c3.38574 4.92676 5.51172 13.791 4.73145 19.7188c-0.780273 5.91406 1.94336 14.3105 6.05664 18.6396
c4.11426 4.32812 7.61133 12.7578 7.76074 18.7236c0.155273 5.97266 4.16602 13.8428 8.90332 17.4697c4.74414 3.63281 9.50879 11.4189 10.5938 17.2871c1.08496 5.86914 6.27148 13.0117 11.5166 15.8516c5.25781 2.84668 11.1787 9.78809 13.167 15.4229
c1.99512 5.62793 8.23438 11.8672 13.8691 13.8623c5.62793 1.98828 12.5693 7.90918 15.416 13.167c2.83984 5.24512 9.97559 10.4316 15.8516 11.5166c5.88086 1.0918 13.6543 5.8623 17.2871 10.5938c3.63281 4.74414 11.5039 8.74805 17.4697 8.90332
c5.96582 0.15625 14.3887 3.64648 18.7236 7.75977c4.33496 4.11426 12.7188 6.84375 18.6396 6.06445c5.92773 -0.787109 14.7988 1.34473 19.7188 4.72461c4.91992 3.38574 13.6279 4.77051 19.3604 3.07422c5.71973 -1.70312 14.8115 -0.988281 20.2061 1.58594
c5.39453 2.57324 14.207 2.57324 19.6016 0c5.3877 -2.57422 14.4795 -3.28906 20.2051 -1.58594c5.72559 1.68945 14.415 0.311523 19.3672 -3.07422c4.91406 -3.37988 13.792 -5.51172 19.7119 -4.72461c5.91406 0.773438 14.3047 -1.9502 18.6328 -6.06445
c4.33496 -4.11328 12.7578 -7.61035 18.7305 -7.75977c5.97949 -0.155273 13.8242 -4.16602 17.4697 -8.90332c3.63379 -4.73828 11.4131 -9.50879 17.2881 -10.5938c5.86816 -1.08496 12.998 -6.27832 15.8516 -11.5166c2.84668 -5.25781 9.78711 -11.1787 15.416 -13.167
c5.64062 -1.99512 11.8604 -8.23438 13.8682 -13.8623c1.98242 -5.63477 7.90332 -12.5762 13.1543 -15.4229c5.25195 -2.83984 10.4248 -9.97559 11.5107 -15.8516c1.09766 -5.875 5.875 -13.6543 10.6191 -17.2871c4.71875 -3.63281 8.74121 -11.5039 8.88379 -17.4697
c0.136719 -5.96582 3.62695 -14.3887 7.76074 -18.7236c4.10742 -4.3291 6.83691 -12.7188 6.05664 -18.6396c-0.792969 -5.92773 1.3457 -14.7988 4.72461 -19.7188c3.40625 -4.91992 4.77734 -13.6221 3.07422 -19.3604
c-1.69629 -5.71973 -0.981445 -14.8184 1.58594 -20.2061zM256.345 -43.9629c130.437 0 236.567 106.144 236.567 236.58c0 130.438 -106.124 236.574 -236.567 236.574c-130.438 0 -236.574 -106.137 -236.574 -236.574c0 -130.443 106.137 -236.58 236.574 -236.58z
M256.338 402.571c115.951 0 209.947 -93.9971 209.947 -209.954s-93.9961 -209.953 -209.947 -209.953c-115.95 0 -209.954 93.9961 -209.954 209.953s94.0039 209.954 209.954 209.954zM331.091 84.0303l-14.2783 83.2598l60.4932 58.96l-83.5977 12.1475l-37.377 75.7402
l-37.3828 -75.7402l-83.5908 -12.1475l60.4863 -58.96l-14.2715 -83.2598l74.7656 39.3066z" />
    <glyph glyph-name="uniF109" unicode="&#xf109;" 
d="M259.934 447.922c141.367 -2.76465 254.208 -94.4004 252.027 -204.651c-2.16113 -110.252 -118.526 -197.351 -259.895 -194.565c-31.8174 0.603516 -62.1934 5.7832 -90.1553 14.6035l-129.763 -55.8652s43.9482 88.9287 3.68066 140.647v0
c-23.4062 30.8828 -36.5693 66.9639 -35.8096 105.266c2.18066 110.251 118.546 197.389 259.914 194.565zM146.566 216.612c17.4082 0 31.5449 14.1182 31.5449 31.5254c0 17.4082 -14.1172 31.5254 -31.5449 31.5254s-31.5449 -14.1172 -31.5449 -31.5254
c0 -17.4072 14.1172 -31.5254 31.5449 -31.5254zM251.677 216.612c17.4082 0 31.5449 14.1182 31.5449 31.5254c0 17.4082 -14.1367 31.5254 -31.5449 31.5254c-17.4072 0 -31.5254 -14.1172 -31.5254 -31.5254c0 -17.4072 14.0986 -31.5254 31.5254 -31.5254z
M356.788 216.612c17.4072 0 31.5449 14.1182 31.5449 31.5254c0 17.4082 -14.1182 31.5254 -31.5449 31.5254c-17.4277 0 -31.5449 -14.1172 -31.5449 -31.5254c0 -17.4072 14.1172 -31.5254 31.5449 -31.5254z" />
    <glyph glyph-name="uniF10A" unicode="&#xf10a;" 
d="M171.817 238.217c0 -4.68066 1.22949 -9.07812 3.33301 -12.9082l-56.5479 -56.5703c-0.0703125 -0.0947266 -0.118164 -0.166016 -0.211914 -0.236328h-94.5137c-13.1914 0 -23.877 10.6846 -23.877 23.8525v231.793c0 13.1904 10.6855 23.8525 23.877 23.8525h231.745
c13.2148 0 23.876 -10.6621 23.876 -23.8525v-94.5137l-68.2725 -68.2734c-3.80664 2.12793 -8.22656 3.35742 -12.9082 3.35742c-14.6328 0 -26.5 -11.8438 -26.5 -26.501zM81.1572 211.716c14.6328 0 26.5244 11.8438 26.5244 26.501s-11.8916 26.501 -26.5244 26.501
c-14.6338 0 -26.5244 -11.8438 -26.5244 -26.501s11.8906 -26.501 26.5244 -26.501zM54.6328 308.263c0 -14.6338 11.8906 -26.501 26.5244 -26.501c14.6328 0 26.5244 11.8672 26.5244 26.501c0 14.6572 -11.8916 26.5244 -26.5244 26.5244
c-14.6338 0 -26.5244 -11.8672 -26.5244 -26.5244zM81.1572 351.808c14.6328 0.0244141 26.5244 11.8682 26.5244 26.5244c0 14.6338 -11.8916 26.501 -26.5244 26.501c-14.6338 0 -26.5244 -11.8672 -26.5244 -26.501c0 -14.6328 11.8672 -26.5 26.5244 -26.5244z
M198.317 404.833c-14.6328 0 -26.5 -11.8672 -26.5 -26.501c0 -14.6328 11.8672 -26.5 26.5 -26.5244c14.6338 0 26.5244 11.8916 26.5244 26.5244c0 14.6338 -11.8906 26.501 -26.5244 26.501zM198.317 334.787c-14.6328 0 -26.5 -11.8672 -26.5 -26.5244
c0 -14.6338 11.8672 -26.501 26.5 -26.501c14.6807 0 26.501 11.8672 26.5244 26.501c-0.0234375 14.6572 -11.8438 26.5244 -26.5244 26.5244zM505.003 143.868c9.33789 -9.33789 9.33789 -24.4199 0.0234375 -33.7812l-163.874 -163.898
c-9.36133 -9.33789 -24.4443 -9.33789 -33.7588 0l-163.921 163.898c-9.31445 9.33789 -9.31445 24.4199 0 33.7578l163.921 163.897c9.31445 9.31445 24.3975 9.31445 33.7354 -0.0234375zM252.028 108.195c5.15332 5.17773 7.75391 11.9854 7.75391 18.7471
c0 6.7373 -2.60059 13.5693 -7.73047 18.7227l-4.9873 -4.96387l4.96387 4.96387c-5.17676 5.20117 -11.9854 7.77734 -18.7227 7.77734c-6.78516 0 -13.5938 -2.59961 -18.7471 -7.77734c-5.20117 -5.15332 -7.80078 -11.9854 -7.75391 -18.7227
c-0.046875 -6.76172 2.55273 -13.5938 7.75391 -18.7471c5.15332 -5.17676 11.9619 -7.75391 18.7471 -7.75391h0.0234375c6.71387 0 13.5459 2.57715 18.6992 7.75391zM342.996 17.251c5.15332 5.22461 7.77734 12.0098 7.75391 18.7949
c0.0234375 6.7373 -2.60059 13.5693 -7.75391 18.7227c-5.15332 5.17676 -11.9854 7.77734 -18.7227 7.77734c-6.78516 0 -13.5938 -2.62402 -18.7705 -7.77734c-5.17773 -5.12988 -7.77832 -11.9854 -7.73047 -18.7227
c-0.0478516 -6.78516 2.55273 -13.5703 7.73047 -18.7471c5.17676 -5.17773 11.9854 -7.77734 18.7705 -7.77734h0.0234375c6.7373 0 13.5459 2.62402 18.6992 7.72949zM297.583 126.942c0 -6.76172 2.57715 -13.5938 7.75391 -18.7471
c5.12988 -5.17676 11.9619 -7.75391 18.7236 -7.75391h0.0703125c6.7373 0 13.5225 2.57715 18.6992 7.75391c5.17773 5.15332 7.75488 11.9854 7.75488 18.7236c0 6.76074 -2.57715 13.5928 -7.75488 18.7461c-5.17676 5.17773 -12.0088 7.77734 -18.7695 7.77734
c-6.73828 0 -13.5938 -2.59961 -18.7236 -7.77734c-5.17676 -5.12988 -7.75391 -11.9854 -7.75391 -18.7227zM342.996 199.21c5.15332 5.17773 7.77734 11.9619 7.75391 18.7471c0.0234375 6.76074 -2.55273 13.5693 -7.73047 18.7471
c-5.17676 5.2002 -12.0088 7.77734 -18.7461 7.75391c-6.78516 0.0234375 -13.5938 -2.60059 -18.7705 -7.75391c-5.17773 -5.1543 -7.77832 -11.9863 -7.77832 -18.7471s2.60059 -13.5693 7.77832 -18.7471c5.17676 -5.17676 11.9854 -7.77734 18.7705 -7.77734h0.0234375
c6.7373 0 13.5459 2.62402 18.6992 7.77734zM433.916 108.195c5.17773 5.17773 7.77832 12.0098 7.77832 18.7471s-2.60059 13.5693 -7.77832 18.7227l-4.94043 -4.96387l4.94043 4.9873c-5.15332 5.1543 -11.9619 7.75391 -18.7227 7.75391
s-13.5928 -2.57617 -18.7471 -7.77734c-5.17676 -5.15332 -7.77734 -11.9854 -7.77734 -18.7461c0 -6.73828 2.60059 -13.5703 7.77734 -18.7236c5.1543 -5.17676 11.9863 -7.77734 18.7471 -7.75391h0.046875c6.7373 0 13.5459 2.57715 18.6758 7.75391z" />
    <glyph glyph-name="uniF10B" unicode="&#xf10b;" 
d="M327.67 415.135c-2.98633 0 -4.81641 -2.63965 -4.81641 -6.37305c0 -3.66113 1.89941 -6.1582 4.7334 -6.1582c2.53906 0 4.32715 2.19824 4.32715 4.81348v3.01855c0 2.53516 -1.67383 4.69922 -4.24414 4.69922zM181.082 374.614h-0.149414
c-0.506836 -2.17773 -1.32324 -5.39355 -2.43457 -9.6416l-4.25098 -13.3604h13.7432l-4.32422 13.3604c-0.461914 1.36133 -1.32324 4.58105 -2.58398 9.6416zM384.948 361.938c-3.28906 0 -5.80664 -1.46191 -7.52246 -4.39355
c-1.46582 -2.42383 -2.19922 -5.37988 -2.19922 -8.85254c0 -3.39355 0.733398 -6.29688 2.19922 -8.71777c1.77441 -2.93164 4.25391 -4.39648 7.44922 -4.39648c3.13281 0 5.58887 1.49609 7.37012 4.47266c1.51465 2.48047 2.26465 5.40039 2.26465 8.78711
c0 3.37598 -0.736328 6.2793 -2.19531 8.70312c-1.72266 2.93555 -4.17773 4.39746 -7.36621 4.39746zM198.871 415.332c-2.91699 0 -4.77832 -2.72656 -4.77832 -6.53613c0 -3.73047 1.89941 -6.45996 4.7334 -6.45996s4.7373 2.91797 4.7373 6.53613
c0 3.69238 -1.86816 6.45996 -4.69238 6.45996zM284.802 415.332c-2.91309 0 -4.77832 -2.72656 -4.77832 -6.53613c0 -3.73047 1.91309 -6.45996 4.7334 -6.45996c2.84082 0 4.74121 2.91797 4.74121 6.53613c0 3.69238 -1.8584 6.45996 -4.69629 6.45996zM309.02 405.993
v2.80273c-4.47656 0 -6.71973 -1.08008 -6.71973 -3.65723c0 -1.90332 1.15234 -2.83008 2.76074 -2.83008c2.04883 0 3.95898 1.5625 3.95898 3.68457zM227.323 361.402c-2.02539 0 -3.8623 -0.673828 -5.49805 -2.01465
c-1.65332 -1.33984 -2.73047 -3.10059 -3.2334 -5.27832c-0.25 -1.01465 -0.381836 -1.84082 -0.381836 -2.49707v-6.1543c0 -2.67773 0.822266 -4.94238 2.46875 -6.80078c1.64648 -1.84375 3.78906 -2.77148 6.41504 -2.77148c3.09473 0 5.49414 1.19824 7.20996 3.56738
c1.72949 2.38574 2.58789 5.52148 2.58789 9.41895c0 3.58691 -0.802734 6.56055 -2.42773 8.88672c-1.77539 2.42773 -4.15723 3.64355 -7.14062 3.64355zM454.861 415.513c-2.31348 0 -4.14746 -2.01074 -4.41406 -4.77832h8.39746
c0 2.80273 -1.41016 4.77832 -3.9834 4.77832zM361.641 402.336c2.84082 0 4.74414 2.91797 4.74414 6.53613c0 3.69238 -1.86914 6.45996 -4.70312 6.45996c-2.90625 0 -4.77539 -2.72656 -4.77539 -6.53613c0 -3.73047 1.90332 -6.45996 4.73438 -6.45996zM512 315.798
v117.452c0 8.1377 -6.58496 14.75 -14.7393 14.75h-482.5c-8.14844 0 -14.7607 -6.6123 -14.7607 -14.75v-117.452c0 -8.13379 6.6123 -14.7227 14.7607 -14.7227h482.5c8.15039 -0.00390625 14.7393 6.58887 14.7393 14.7227v0zM455.143 418.312
c4.63965 0 7.54297 -3.43164 7.54297 -8.62402c0.00683594 -0.701172 -0.0273438 -1.34375 -0.141602 -1.81934h-12.0938c0.0732422 -3.43164 2.35449 -5.37695 5.7168 -5.37695c1.78516 0 3.42773 0.294922 4.88281 0.861328l0.625 -2.80566
c-1.70801 -0.740234 -3.72949 -1.11523 -6.07715 -1.11523c-5.67188 0 -9.03418 3.58105 -9.03418 9.1377c0 5.56055 3.43848 9.74219 8.5791 9.74219zM379.881 417.906l0.18457 -2.80273h0.110352c1.08398 1.94141 3.28613 3.17383 5.74805 3.17383
c3.81055 0 6.30762 -2.90723 6.30762 -7.64746v-10.8711h-4.03613v10.4199c0 3.20898 -1.22949 4.81641 -3.65332 4.81641c-2.38965 0 -4.02539 -2.05566 -4.02539 -4.43848v-10.7939h-4.03613v12.9541c0 1.60156 -0.0341797 3.32422 -0.149414 5.18945h3.5498z
M361.828 418.277c5.23047 0 8.73438 -3.77148 8.73438 -9.30469c0 -5.66113 -3.61914 -9.62305 -9.03711 -9.62305c-5.28906 0 -8.72363 3.96191 -8.72363 9.33203c0 5.60156 3.50781 9.5957 9.02637 9.5957zM265.926 426.221h4.0293v-26.458h-4.0293v26.458z
M215.83 417.902l2.05273 -8.62402c0.486328 -2.04883 0.892578 -3.9834 1.22949 -5.81738h0.0761719c0.295898 1.52148 0.785156 3.42871 1.49023 5.77637l2.57324 8.66504h3.28906l2.46582 -8.4707c0.59082 -2.05957 1.08398 -4.07422 1.45898 -5.98047h0.107422
c0.257812 1.86816 0.666992 3.84473 1.22949 5.98047l2.20215 8.4707h3.95898v0v0v0l-5.6748 -18.1436h-3.69141l-2.35156 7.88086c-0.586914 1.97949 -1.08008 3.9209 -1.45898 5.8623h-0.0722656c-0.295898 -1.97266 -0.858398 -3.96289 -1.46289 -5.8623
l-2.49707 -7.88086h-3.72949l-5.33789 18.1436h4.14258zM164.544 424.585c2.12891 0.333008 4.43848 0.520508 6.94238 0.520508c9.39844 0 13.7324 -4.61914 13.7324 -12.166c0 -8.70312 -5.11621 -13.3955 -14.7783 -13.3955
c-2.28125 0 -4.25781 0.114258 -5.89648 0.301758v24.7393zM90.7061 420.038c3.49707 4.1123 9.58203 7.25586 14.4482 7.47754c0.638672 -5.81055 -1.66406 -11.5195 -5.02246 -15.7295c-3.51074 -4.13281 -9.12012 -7.30371 -14.5801 -6.89355
c-0.714844 5.58789 2.0498 11.5195 5.1543 15.1455zM118.751 341.589c-4.03516 -6.02246 -8.25879 -11.9199 -14.9688 -12.0244c-6.51172 -0.149414 -8.70312 3.83496 -16.1738 3.83496c-7.54004 0 -9.87402 -3.72656 -16.1289 -3.98047
c-6.38379 -0.232422 -11.2666 6.42871 -15.4414 12.4062c-8.34961 12.1904 -14.8438 34.3623 -6.13379 49.4385c4.22656 7.4082 11.9229 12.1699 20.1445 12.2988c6.4043 0.125 12.3389 -4.32129 16.2705 -4.32129c3.84473 0 11.1904 5.31738 18.751 4.52539
c3.16406 -0.09375 12.1738 -1.24316 17.9805 -9.72461c-0.464844 -0.270508 -10.7285 -6.30371 -10.6172 -18.6982c0.128906 -14.8545 12.9932 -19.7695 13.1562 -19.8213c-0.0800781 -0.347656 -2.01758 -7.08887 -6.83887 -13.9336zM194.221 330.273l-4.78906 15.0381
h-16.6221l-4.56055 -15.0381h-8.50488l16.4795 51.1787h10.1797l16.5527 -51.1787h-8.73535zM198.712 399.353c-5.29297 0 -8.73145 3.96289 -8.73145 9.33203c0 5.59863 3.50391 9.59668 9.02637 9.59668c5.23438 0 8.74219 -3.77246 8.74219 -9.30469
c-0.00390625 -5.66113 -3.62305 -9.62402 -9.03711 -9.62402zM240.125 334.299c-3.0459 -3.2373 -6.8457 -4.85938 -11.3682 -4.85938c-4.88965 0 -8.4082 1.74414 -10.5332 5.2373v-19.3623h-8.20703v39.7324c0 3.94141 -0.100586 7.98145 -0.301758 12.1279h7.20996
l0.458008 -5.85254h0.15625c2.7334 4.40723 6.87988 6.60645 12.4443 6.60645c4.3623 0 7.99121 -1.71582 10.9014 -5.1582c2.9043 -3.44824 4.3623 -7.97363 4.3623 -13.5928c-0.00292969 -6.27637 -1.70508 -11.2393 -5.12207 -14.8789zM247.123 410.557v-10.7939
h-4.02246v12.9541c0 1.60156 -0.0410156 3.32422 -0.15625 5.18945h3.54688l0.1875 -2.80273h0.110352c1.08398 1.94141 3.28223 3.17383 5.75195 3.17383c3.80664 0 6.2998 -2.91699 6.2998 -7.6543v-10.8643v0h-4.02832v10.4199
c0 3.20898 -1.22949 4.81641 -3.66113 4.81641c-2.38574 0 -4.02832 -2.05566 -4.02832 -4.43848zM282.572 334.299c-3.05957 -3.2373 -6.85254 -4.85938 -11.3809 -4.85938c-4.88379 0 -8.39844 1.74414 -10.5342 5.2373v-19.3623h-8.2002v39.7324
c0 3.94141 -0.103516 7.98145 -0.305664 12.1279h7.21387l0.458984 -5.85254h0.152344c2.72949 4.40723 6.87988 6.60645 12.458 6.60645c4.3418 0 7.98145 -1.71582 10.8945 -5.1582c2.90039 -3.44824 4.3623 -7.97363 4.3623 -13.5928
c-0.00292969 -6.27637 -1.71191 -11.2393 -5.11914 -14.8789zM284.649 399.353c-5.28906 0 -8.73145 3.96289 -8.73145 9.33203c0 5.59863 3.51465 9.59668 9.03711 9.59668c5.21973 0 8.73145 -3.77246 8.73145 -9.30469c0 -5.66113 -3.62305 -9.62402 -9.03711 -9.62402z
M298.306 404.688c0 4.48047 3.87891 6.79688 10.5996 6.79688v0.333008c0 2.38574 -1.25684 3.57715 -3.76465 3.57715c-1.78906 0 -3.3623 -0.444336 -4.7373 -1.34375l-0.823242 2.65723c1.67383 1.04199 3.77148 1.56934 6.22754 1.56934
c4.7373 0 7.12988 -2.50781 7.12988 -7.50488v-6.68555c0 -1.82422 0.0761719 -3.24414 0.263672 -4.32812h-3.62891v0l-0.291992 2.09082h-0.107422c-1.2334 -1.66992 -3.02832 -2.49707 -5.30664 -2.49707c-3.24805 0 -5.56055 2.27832 -5.56055 5.33496zM330.595 333.996
c-3.33105 -2.98633 -7.98438 -4.4834 -13.9414 -4.4834c-5.50781 0 -9.92188 1.06934 -13.2529 3.19141l1.89941 6.83887c3.5918 -2.13281 7.54395 -3.19141 11.8398 -3.19141c3.09473 0 5.49512 0.694336 7.21387 2.09082c1.71582 1.38184 2.58398 3.25391 2.58398 5.57031
c0 2.08008 -0.71582 3.82422 -2.12598 5.24414c-1.42383 1.4209 -3.76758 2.7334 -7.06055 3.95312c-8.95996 3.34082 -13.4404 8.2207 -13.4404 14.6562c0 4.19531 1.58008 7.63672 4.74023 10.3281c3.16406 2.67773 7.35254 4.02246 12.5664 4.02246
c4.66016 0 8.54004 -0.80957 11.6201 -2.42773l-2.05957 -6.68945c-2.89648 1.56641 -6.1709 2.3623 -9.8252 2.3623c-2.89258 0 -5.16406 -0.719727 -6.78613 -2.13672c-1.36523 -1.26074 -2.05957 -2.80273 -2.05957 -4.63281
c0 -2.01758 0.791992 -3.69531 2.3584 -5.00781c1.36523 -1.20898 3.85156 -2.53223 7.44238 -3.94531c4.41113 -1.78223 7.64453 -3.8418 9.72168 -6.22461c2.07617 -2.37891 3.11133 -5.34082 3.11133 -8.87988c-0.00292969 -4.36914 -1.52051 -7.90527 -4.5459 -10.6387z
M332.512 399.759l-0.183594 2.91797h-0.111328c-1.16016 -2.20215 -3.1084 -3.32422 -5.82422 -3.32422c-4.37305 0 -7.61035 3.84863 -7.61035 9.25586c0 5.6748 3.35547 9.66895 7.93652 9.66895c2.43066 0 4.15039 -0.819336 5.11621 -2.46582h0.0791016v10.4092h4.03613
v-21.5645c0 -1.75391 0.0449219 -3.40039 0.149414 -4.89355h-3.58789v-0.00390625zM362.317 361.021h-9.03711v-17.9141c0 -4.55664 1.58789 -6.83203 4.7832 -6.83203c1.46484 0 2.68066 0.12207 3.64648 0.378906l0.21875 -6.22363
c-1.6084 -0.607422 -3.7373 -0.910156 -6.37695 -0.910156c-3.2334 0 -5.76465 0.983398 -7.5918 2.95898c-1.81641 1.97656 -2.7334 5.29004 -2.7334 9.9541v18.5947h-5.38672v6.15039h5.38672v6.75586l8.05078 2.43066v-9.18945h9.03711v-6.1543h0.00292969z
M398.149 335.056c-3.38672 -3.74707 -7.8877 -5.61914 -13.5068 -5.61914c-5.4248 0 -9.73535 1.79883 -12.9512 5.38672c-3.22266 3.59766 -4.82422 8.12305 -4.82422 13.5938c0 5.7168 1.65723 10.4014 4.97363 14.0479c3.32031 3.64062 7.79004 5.46387 13.4023 5.46387
c5.41797 0 9.7666 -1.80273 13.0586 -5.39062c3.13965 -3.49707 4.70605 -7.99121 4.70605 -13.5137c0.00390625 -5.67188 -1.61816 -10.3252 -4.8584 -13.9688zM408.301 417.902h2.65332v3.31641l3.96289 1.20215v-4.51465h4.42871v-3.02539h-4.42871v-8.81152
c0 -2.24023 0.774414 -3.3584 2.34473 -3.3584c0.708008 0 1.30566 0.0732422 1.78809 0.191406l0.115234 -3.06348c-0.785156 -0.305664 -1.82715 -0.455078 -3.13281 -0.455078c-3.1748 0 -5.07422 1.76074 -5.07422 6.34863v9.14844h-2.65332v3.02148h-0.00390625z
M429.667 359.958v0c-0.808594 0.15625 -1.66992 0.225586 -2.58008 0.225586c-2.88281 0 -5.11621 -1.08008 -6.68555 -3.26465c-1.36133 -1.92383 -2.0459 -4.34863 -2.0459 -7.29004v-19.3594h-8.19629v25.2812c0 4.25391 -0.0761719 8.12695 -0.239258 11.6201h7.15039
l0.298828 -7.05664h0.222656c0.864258 2.42383 2.2334 4.37598 4.10449 5.8418c1.82422 1.32324 3.7998 1.97266 5.92188 1.97266c0.760742 0 1.44141 -0.0556641 2.05273 -0.146484v-7.82422h-0.00390625v0zM428.97 410.699v-10.9365h-4.02539v26.458h4.02539v-10.8887
h0.0761719c1.26758 1.97656 3.1084 2.94922 5.45215 2.94922c3.83789 0 6.18555 -2.9834 6.18555 -7.72461v-10.7939h-4.02832v10.3457c0 3.24414 -1.22559 4.87988 -3.65723 4.87988c-2.08398 -0.00292969 -4.02832 -1.41309 -4.02832 -4.28906zM466.037 346.753h-24.5889
c0.0898438 -3.64648 1.28125 -6.43848 3.56348 -8.36328c2.07324 -1.70801 4.75098 -2.57324 8.04297 -2.57324c3.64062 0 6.96387 0.580078 9.95117 1.74316l1.28418 -5.68555c-3.49316 -1.52441 -7.61621 -2.28125 -12.3711 -2.28125
c-5.72363 0 -10.2178 1.67773 -13.4824 5.0459c-3.26074 3.36621 -4.89648 7.8877 -4.89648 13.5557c0 5.56055 1.51758 10.1934 4.55664 13.8857c3.18457 3.95215 7.48438 5.9209 12.9023 5.9209c5.31738 0 9.34277 -1.96875 12.0791 -5.9209
c2.16699 -3.12988 3.25781 -7.00879 3.25781 -11.6104c0.00390625 -1.46582 -0.0966797 -2.70215 -0.298828 -3.7168zM456.924 358.895c-1.41699 2.28223 -3.60156 3.4248 -6.5293 3.4248c-2.68066 0 -4.8623 -1.11133 -6.5293 -3.34082
c-1.36523 -1.77539 -2.17383 -3.90723 -2.4209 -6.37695h17.0742c0.0585938 2.4248 -0.479492 4.52246 -1.59473 6.29297zM269.768 361.402c-2.02832 0 -3.8623 -0.673828 -5.50879 -2.01465c-1.64941 -1.33984 -2.71973 -3.10059 -3.22656 -5.27832
c-0.246094 -1.01465 -0.381836 -1.84082 -0.381836 -2.49707v-6.1543c0 -2.67773 0.826172 -4.94238 2.46289 -6.80078c1.64941 -1.83398 3.78516 -2.77148 6.4248 -2.77148c3.09082 0 5.49414 1.19824 7.20996 3.56738c1.71973 2.38574 2.58398 5.52148 2.58398 9.41895
c0 3.58691 -0.8125 6.56055 -2.43066 8.88672c-1.77539 2.42773 -4.15039 3.64355 -7.13379 3.64355zM180.961 412.832c0 5.84863 -3.1748 9.09863 -9.14844 9.09863c-1.27051 0 -2.34766 -0.0722656 -3.24707 -0.259766v-18.8066
c0.486328 -0.0771484 1.41309 -0.111328 2.72266 -0.111328c6.16504 0 9.67285 3.50391 9.67285 10.0791z" />
    <glyph glyph-name="uniF10C" unicode="&#xf10c;" 
d="M483.74 448h-455.482c-15.6084 0 -28.2578 -12.6494 -28.2578 -28.2578v-455.482c0 -15.6064 12.6494 -28.2578 28.2578 -28.2578h245.216v198.271h-66.7227v77.2715h66.7227v56.9854c0 66.1309 40.3906 102.141 99.3838 102.141
c28.2578 0 52.5459 -2.10449 59.623 -3.04395v-69.1113l-40.915 -0.0185547c-32.084 0 -38.2959 -15.2451 -38.2959 -37.6172v-49.335h76.5176l-9.96191 -77.2715h-66.5537v-198.271h130.471c15.6064 0 28.2578 12.6533 28.2578 28.2578v455.482
c0 15.6084 -12.6533 28.2578 -28.2598 28.2578z" />
    <glyph glyph-name="uniF10D" unicode="&#xf10d;" 
d="M284.444 358.991h-81.2539c-9.60352 0 -20.332 -12.6348 -20.332 -29.5361v-58.6758h101.586v-83.626h-101.586v-251.153h-95.9033v251.142h-86.9551v83.627h86.9551v49.2314c0 70.582 48.9863 128 116.235 128h81.2539v-89.0088z" />
    <glyph glyph-name="uniF10E" unicode="&#xf10e;" 
d="M511.22 196.625c0 -10.5869 0.991211 -35.6738 0.71875 -49.5791h-187.173h-137.544h-187.172c-0.285156 13.9053 0.730469 38.9922 0.730469 49.5791c5.37402 15.6387 23.2168 17.8672 38.1377 24.1582c16.3691 6.90918 34.5098 14.9209 50.8545 21.6191
c4.64355 1.28809 9.31152 2.55078 13.9795 3.82617c5.55957 3.82617 11.0078 16.543 13.9795 22.8828l6.625 1.59766c-1.49805 8.37012 -6.67383 9.01367 -8.8291 14.9209c-0.841797 8.89062 -1.69629 17.793 -2.53809 26.6963
c0.0253906 -0.40918 -6.10449 1.13867 -6.89648 1.62207c-8.63086 5.41113 -8.80469 27.4023 -9.64648 36.5156c-0.358398 4.18555 5.44824 7.61523 3.77734 15.3047c-9.44824 44.8613 4.09766 65.8369 25.5195 72.7959c14.8711 6.05469 42.6572 17.2236 68.5615 1.28809
l6.43848 -5.96875l10.4014 -1.79492c5.21289 -2.99707 8.55664 -13.0146 8.55664 -13.0146c2.73633 -11.0322 3.00879 -11.9482 2.76074 -23.2656c-0.0986328 -4.37109 -2.6123 -24.5674 -1.93164 -30.7588c0.557617 -5.10156 1.8457 -5.50977 3.85156 -9.71973
c3.50391 -7.33008 2.33984 -17.4346 0.990234 -24.8145c-0.730469 -4.04883 -2.30273 -9.79395 -4.66797 -13.1133c-2.58789 -3.62793 -7.80078 -3.65234 -10.1289 -7.91211c-3.30566 -6.0918 -1.44922 -14.6855 -3.5293 -21.2852
c-2.40234 -7.47852 -8.44434 -8.01172 -8.90234 -17.8057c2.97168 -0.420898 5.93066 -0.854492 8.90234 -1.26367c2.97168 -6.33887 8.41992 -19.0557 13.9805 -22.8818c4.66797 -1.28809 9.33594 -2.53906 13.9795 -3.82617
c6.73535 -2.76172 13.8555 -5.80762 20.9512 -8.85352c7.10742 3.0459 14.2266 6.0918 20.9629 8.85352c4.64355 1.28711 9.31152 2.53809 13.9795 3.82617c5.56055 3.82617 11.0088 16.543 13.9805 22.8818l6.62402 1.59766
c-1.49805 8.37109 -6.67383 9.01465 -8.82812 14.9209c-0.842773 8.89062 -1.69629 17.7939 -2.53906 26.6963c0.0253906 -0.408203 -6.10449 1.13965 -6.89648 1.62207c-8.63086 5.41113 -8.80371 27.4023 -9.64648 36.5156
c-0.358398 4.17285 5.44824 7.61523 3.82617 15.2559c-9.44727 44.8613 4.09863 65.8369 25.5205 72.7959c14.8711 6.05469 42.6572 17.2236 68.5615 1.28711l6.43848 -5.96777l10.4014 -1.7959c5.21289 -2.99609 8.55664 -13.0137 8.55664 -13.0137
c2.73633 -11.0322 3.00879 -11.9492 2.76074 -23.2666c-0.0986328 -4.37109 -2.6123 -24.5664 -1.93164 -30.7578c0.557617 -5.10156 1.8457 -5.50977 3.85156 -9.71973c3.50391 -7.33105 2.33984 -17.4346 0.990234 -24.8145
c-0.730469 -4.04883 -2.30273 -9.79492 -4.66797 -13.1133c-2.58789 -3.62793 -7.80078 -3.65234 -10.1289 -7.91211c-3.30664 -6.09277 -1.44922 -14.6855 -3.5293 -21.2852c-2.40234 -7.47949 -8.44434 -8.01172 -8.90234 -17.8066
c2.97168 -0.420898 5.93066 -0.853516 8.90234 -1.2627c2.97168 -6.33984 8.41992 -19.0566 13.9795 -22.8828c4.66895 -1.28711 9.33691 -2.53809 13.9805 -3.82617c16.3447 -6.69824 34.4844 -14.6973 50.8545 -21.6191
c14.9209 -6.29102 32.7637 -8.50684 38.1621 -24.1582z" />
    <glyph glyph-name="uniF10F" unicode="&#xf10f;" 
d="M255.992 448c141.394 0 256.008 -114.614 255.992 -256.023c0 -113.059 -73.2666 -208.955 -174.915 -242.87c-12.9971 -2.49805 -17.6016 5.4541 -17.6016 12.3057c0 8.39258 0.314453 36.0049 0.314453 70.2334c0 23.8877 -8.17285 39.5088 -17.3662 47.4141
c57.0322 6.33301 116.894 27.9736 116.894 126.322c0 27.9424 -9.91699 50.793 -26.3086 68.6934c2.625 6.47461 11.4258 32.5 -2.5459 67.75c0 0 -21.4678 6.88379 -70.3428 -26.2451c-20.4619 5.67285 -42.3379 8.51758 -64.0889 8.6123
c-21.7822 -0.0947266 -43.6738 -2.93945 -64.0879 -8.6123c-48.8916 33.1289 -70.3906 26.2451 -70.3906 26.2451c-13.9395 -35.25 -5.13867 -61.2754 -2.51465 -67.75c-16.376 -17.9004 -26.3555 -40.751 -26.3555 -68.6934c0 -98.0967 59.7666 -120.067 116.61 -126.526
c-7.30762 -6.39648 -13.9238 -17.6807 -16.25 -34.2285c-14.5996 -6.55371 -51.6729 -17.8379 -74.5078 21.2783c0 0 -13.5156 24.5791 -39.2109 26.3867c0 0 -25.0029 0.330078 -1.75977 -15.5586c0 0 16.7842 -7.87305 28.4297 -37.4502
c0 0 15.0244 -49.7871 86.2314 -34.3232c0.125977 -21.373 0.345703 -37.4658 0.345703 -43.5479c0 -6.77344 -4.68262 -14.6787 -17.4756 -12.3369c-101.743 33.8516 -175.088 129.812 -175.088 242.901c0 141.409 114.63 256.023 255.992 256.023z" />
    <glyph glyph-name="uniF110" unicode="&#xf110;" 
d="M65.7051 448h380.59c36.1406 0 65.7051 -29.5645 65.7051 -65.7051v-380.578c0 -36.1299 -29.5645 -65.7168 -65.7051 -65.7168h-380.59c-36.1406 0 -65.7051 29.5869 -65.7051 65.7275v380.567c0 36.1406 29.5645 65.7051 65.7051 65.7051zM372.968 391.118
c-12.6855 0 -23.0439 -10.3701 -23.0439 -23.0439v-55.168c0 -12.6953 10.3701 -23.0664 23.0439 -23.0664h57.8604c12.707 0 23.0557 10.3711 23.0557 23.0664v55.168c0 12.6738 -10.3594 23.0439 -23.0557 23.0439h-57.8604zM454.128 231.479h-45.0869
c4.28418 -13.9199 6.58789 -28.6631 6.58789 -43.9297c0 -85.1553 -71.2578 -154.198 -159.161 -154.198c-87.8818 0 -159.14 69.043 -159.14 154.198c0 15.2666 2.30371 30.0098 6.56543 43.9297h-47.0117v-216.265c0 -11.1943 9.16797 -20.3516 20.3623 -20.3516h356.532
c11.1836 0 20.3516 9.15723 20.3516 20.3516v216.265zM256.479 292.756c-56.793 0 -102.825 -44.6201 -102.825 -99.6436c0 -55.0225 46.0322 -99.6309 102.825 -99.6309c56.792 0 102.836 44.6084 102.836 99.6309c0 55.0234 -46.0439 99.6436 -102.836 99.6436z" />
    <glyph glyph-name="uniF111" unicode="&#xf111;" 
d="M267.815 413.866c3.30957 -12.9912 3.61035 -14.0576 3.33691 -27.4043c-0.136719 -5.14258 -3.17285 -28.9375 -2.35254 -36.2393c0.683594 -6.01758 2.24316 -6.50977 4.64941 -11.46c4.23926 -8.61523 2.84473 -20.54 1.2041 -29.2109
c-0.875977 -4.75879 -2.79004 -11.541 -5.66211 -15.4248c-3.11816 -4.29492 -9.46289 -4.32227 -12.2529 -9.35449c-4.02051 -7.16602 -1.77734 -17.2852 -4.29395 -25.0527c-2.89941 -8.80664 -10.2285 -9.43555 -10.7764 -20.9775
c3.61035 -0.464844 7.19336 -0.985352 10.7764 -1.47754c3.61035 -7.4668 10.2021 -22.4541 16.9297 -26.9395c5.66211 -1.50488 11.3232 -2.98145 16.9307 -4.51367c19.8018 -7.9043 27.1309 -17.3125 46.96 -25.4629c18.0791 -7.41211 40.5332 -20.0479 47.0703 -38.5098
c0 -12.499 -0.191406 -48.5742 -16.3828 -48.3281h-347.569c-15.6992 -0.246094 -16.3828 35.8564 -16.3828 48.3281c6.50977 18.4346 45.3467 31.0977 63.4258 38.5098c19.8291 8.15039 27.1865 17.5859 46.9609 25.4629c5.63379 1.50488 11.2949 2.98145 16.9297 4.51367
c6.72852 4.5127 13.3193 19.4727 16.9297 26.9395l8.04102 1.8877c-1.80469 9.8457 -8.0957 10.6387 -10.6943 17.5859c-1.03906 10.4756 -2.05078 20.9502 -3.08984 31.4258c0.0273438 -0.492188 -7.38477 1.33984 -8.3418 1.91504
c-10.4482 6.37207 -10.667 32.2734 -11.7061 43.0215c-0.4375 4.92383 6.59082 8.97168 4.62207 17.9697c-11.46 52.8408 4.9502 77.5381 30.9053 85.7432c18.0518 7.16602 51.6924 20.2939 83.0635 1.53223l7.79492 -7.0293l12.6084 -2.10645
c6.31836 -3.52832 10.3662 -15.3438 10.3662 -15.3438zM438.865 396.28v-147.692c0 -12.2256 -9.81934 -22.1533 -21.9355 -22.1533s-21.9619 9.92773 -21.9619 22.1533v147.692c0 12.2529 9.81836 22.1543 21.9619 22.1543c12.1162 0 21.9355 -9.90137 21.9355 -22.1543z
M343.768 344.588h146.298c12.1162 0 21.9346 -9.92773 21.9346 -22.1533s-9.81836 -22.1543 -21.9346 -22.1543h-146.298c-12.1162 0 -21.9355 9.92871 -21.9355 22.1543s9.81934 22.1533 21.9355 22.1533z" />
    <glyph glyph-name="uniF112" unicode="&#xf112;" 
d="M436.203 448c40.7656 0 73.8164 -33.0654 73.8164 -73.8291v-362.37c0 -40.7607 -33.0518 -73.8203 -73.8164 -73.8203h-362.38c-40.7646 0 -73.8232 33.0596 -73.8232 73.8203v362.37c0 40.7637 33.0586 73.8291 73.8232 73.8291h362.38zM218.72 52.5889
c2.0791 5.02148 3.14355 10.7529 2.81445 16.1748c-0.865234 13.8281 -8.32422 25.875 -12.8418 38.666c-5.27637 14.9648 -7.43652 32.5049 0.291016 46.8809c-15.1289 1.51172 -28.4971 3.60742 -39.5957 5.70117c-1.44727 -6.2959 -2.11523 -12.7773 -1.8457 -19.0498
c0.816406 -19.1162 9.19922 -37.7021 20.8018 -52.667c4.96191 -6.40527 11.1953 -12.3174 13.6006 -20.2969c1.55273 -5.12402 0.302734 -10.5166 -2.16016 -15.1318c-2.06738 -3.86719 -5.72852 -8.03809 -4.01367 -12.71
c1.34082 -3.66699 6.57031 -6.14551 10.249 -4.23242c5.55566 2.88965 10.3994 11.0381 12.7002 16.665zM271.768 106.072c1.57617 15.4863 3.01172 30.9424 4.3418 46.4043c-6.80664 -0.31543 -13.8428 -0.488281 -21.1055 -0.488281
c-7.24902 0 -14.3008 0.172852 -21.0918 0.488281c1.30664 -15.4619 2.75195 -30.918 4.33887 -46.4043c1.42285 -13.8613 2.97656 -27.7344 4.64648 -41.6045c1.68359 -13.8838 3.52832 -27.7549 5.67383 -41.6436c0.433594 -2.70898 2.56934 -4.97754 5.42871 -5.41895
c3.57031 -0.555664 6.87695 1.87012 7.44043 5.41895c2.1543 13.8877 3.9873 27.7598 5.67969 41.6436c1.66016 13.8701 3.22461 27.7432 4.64746 41.6045zM342.887 140.961c0.275391 6.31055 -0.389648 12.8047 -1.86035 19.1211
c-11.0723 -2.10059 -24.4541 -4.20312 -39.5977 -5.7334c7.74121 -14.3809 5.58301 -31.9385 0.302734 -46.9199c-4.50488 -12.791 -11.9854 -24.8379 -12.8301 -38.666c-0.325195 -5.42188 0.739258 -11.1533 2.80273 -16.1748
c2.32324 -5.62793 7.15625 -13.7764 12.6914 -16.665c3.7002 -1.91309 8.92969 0.56543 10.2695 4.23242c1.71777 4.67188 -1.97461 8.84277 -4.03711 12.71c-2.45215 4.61523 -3.68555 10.0078 -2.13184 15.1318c2.40137 7.98047 8.63281 13.8926 13.5811 20.2969
c11.6172 14.9648 19.9775 33.5508 20.8096 52.667zM387.676 200.082c1.30762 6.64844 1.14355 13.9336 1.14355 20.6777c0 86.9395 -59.9121 147.883 -133.817 147.883c-73.8955 0 -133.806 -61.9883 -133.806 -148.941c0 -10.3379 0.829102 -18.0381 0.829102 -18.042
c0.944336 -8.69922 8.05566 -17.4229 16.3896 -20.1035c0 0 49.3086 -15.7832 116.587 -15.7832c67.2891 0 116.6 15.7832 116.6 15.7832c7.58789 2.43945 14.5264 10.543 16.0742 18.5264zM319.778 321.839c19.207 -15.8271 33.6475 -38.4062 38.5635 -62.9326
c0.814453 -4.05176 1.50391 -8.46875 1.36328 -12.6016c-0.137695 -3.78809 -5.2041 -5.06641 -6.69141 -1.36816c-14.4258 36.1729 -40.5986 59.167 -60.0225 72.0947c-23.873 15.877 -44.0938 21.3936 -49.6504 21.4814
c-1.90234 0.0302734 -3.43262 1.70996 -3.45508 3.77441c-0.0224609 2.08398 1.47266 3.78418 3.38672 3.83789c27.6211 0.695312 54.9922 -6.55957 76.5059 -24.2861z" />
    <glyph glyph-name="uniF113" unicode="&#xf113;" 
d="M474.074 448c20.8809 0 37.9258 -16.5381 37.9258 -36.8877v-438.168c0 -20.3896 -17.0449 -36.9443 -37.9258 -36.9443h-436.281c-20.8564 0 -37.793 16.5547 -37.793 36.9443v438.168c0 20.3496 16.9365 36.8877 37.793 36.8877h436.281zM151.849 11.7051v244.333
h-75.9727v-244.333h75.9727zM113.865 289.443c24.2773 0 44.0107 19.7334 44.0088 44.0469c0 24.2861 -19.7314 44.0176 -44.0088 44.0176c-24.3408 0 -44.0176 -19.7314 -44.0176 -44.0176c0 -24.3154 19.6738 -44.0469 44.0176 -44.0469zM436.265 11.7051v134.019
c0 65.8125 -14.1963 116.406 -91.0391 116.406c-36.9443 0 -61.7227 -20.2568 -71.8604 -39.4619h-1.03809v33.3701h-72.8506v-244.333h75.915v120.87c0 31.8721 6.02832 62.7412 45.5469 62.7412c38.917 0 39.4717 -36.4443 39.4717 -64.7969v-118.814h75.8545z" />
    <glyph glyph-name="uniF114" unicode="&#xf114;" 
d="M0 129.422h512v-45.5107h-512v45.5107zM0 288.711h512v-45.5107h-512v45.5107zM0 448h512v-45.5107h-512v45.5107z" />
    <glyph glyph-name="uniF115" unicode="&#xf115;" 
d="M346.369 402.327c4.31348 -17.3906 4.72363 -18.835 4.35254 -36.6738c-0.15625 -6.91016 -4.11816 -38.7246 -3.04492 -48.4834c0.87793 -8.04199 2.88867 -8.68555 6.07031 -15.3223c5.52344 -11.5547 3.68848 -27.4814 1.56152 -39.1143
c-1.15137 -6.3623 -3.63086 -15.4385 -7.3584 -20.6689c-4.0791 -5.71875 -12.3164 -5.75781 -15.9658 -12.4727c-5.23145 -9.60254 -2.28418 -23.1484 -5.5625 -33.5518c-3.76758 -11.7891 -13.3115 -12.6084 -14.0342 -28.0664
c4.68457 -0.644531 9.34961 -1.32812 14.0342 -1.99121c4.68359 -9.99316 13.2715 -30.0381 22.0352 -36.0693c7.3584 -2.03027 14.7168 -4.00195 22.0361 -6.03125c25.7646 -10.5596 54.3584 -23.1875 80.1611 -34.0791
c23.5195 -9.91504 51.6455 -13.4287 60.1553 -38.0801c0 -16.6875 1.56152 -56.2314 1.15137 -78.1504h-511.883c-0.449219 21.9189 1.15137 61.4434 1.15137 78.1504c8.4707 24.6709 36.5967 28.165 60.1162 38.0801c25.8027 10.9111 54.3965 23.5195 80.1611 34.0791
c7.31934 2.0293 14.6777 4.00098 22.0361 6.03125c8.76367 6.03125 17.3516 26.0762 22.0352 36.0693l10.4424 2.51758c-2.36133 13.1943 -10.5205 14.2285 -13.916 23.5195c-1.32715 14.0332 -2.67383 28.0674 -4.00098 42.0811
c0.0390625 -0.644531 -9.60352 1.7959 -10.8721 2.55664c-13.6045 8.54883 -13.877 43.1943 -15.2051 57.5596c-0.56543 6.63574 8.58887 12.042 6.03125 24.085c-14.9111 70.7148 6.44141 103.759 40.2275 114.747c23.4414 9.52539 67.2393 27.1504 108.071 2.03027
l10.1494 -9.4082l16.3955 -2.83008c8.2168 -4.72266 13.4678 -20.5137 13.4678 -20.5137z" />
    <glyph glyph-name="uniF116" unicode="&#xf116;" 
d="M256.015 448c141.412 0 255.985 -114.603 255.985 -256.015s-114.573 -256.014 -255.985 -256.014c-141.384 0 -256.015 114.602 -256.015 256.014s114.631 256.015 256.015 256.015zM256.015 69.9365l116.808 186.841h-233.645z" />
    <glyph glyph-name="uniF117" unicode="&#xf117;" 
d="M374.172 -22.54v-0.0234375h8.58203v-41.4482h-282.821v41.4482h8.55957v31.8105h5.96777v6.89355s-9.37988 -1.53516 -9.37988 20.7891c0 22.2891 5.5459 46.7246 53.6426 67.9707c2.37988 1.03125 4.46777 2.2627 6.39062 3.55273v17.3408h11.3262
c28.6211 79.3789 26.6396 142.132 25.3027 159.509h-9.79102v17.6582h21.0117c-27.5303 11.2207 -46.959 38.165 -46.959 69.7168c0 41.6006 33.7217 75.3223 75.3223 75.3223s75.334 -33.7217 75.334 -75.3223c0 -31.5635 -19.4404 -58.4961 -46.9707 -69.7168h21.0459
v-17.6348h-9.8252c-1.3252 -17.4121 -3.31836 -80.1299 25.3145 -159.509h11.3145v-17.3408c1.92285 -1.33691 4.02148 -2.52148 6.36719 -3.55273c48.0723 -21.2578 53.6768 -45.7168 53.6768 -67.9707c0 -22.3242 -9.37988 -20.7891 -9.37988 -20.7891v-6.89355h5.96875
v-31.8105z" />
    <glyph glyph-name="uniF118" unicode="&#xf118;" 
d="M347.717 429.07h85.3799v-439.098h-182.957l158.562 106.884v307.819h-60.9854v24.3945zM357.73 448l99.7607 -416.74l-357.45 -95.248l-100.041 416.68zM98.626 22.7461l316.846 84.417l-72.707 315.064l-316.846 -84.417zM139.986 69.5342l32.1035 122.398
l62.4004 -54.8994l31.4805 151.184l129.547 -150.586zM131.437 300.487c18.7109 4.98926 37.9453 -6.00098 42.9463 -24.54c5.00098 -18.54 -6.13477 -37.6162 -24.8457 -42.6055c-18.7227 -4.98828 -37.9453 6.00098 -42.9463 24.541s6.13574 37.6279 24.8457 42.6045z" />
    <glyph glyph-name="uniF119" unicode="&#xf119;" 
d="M230.4 448h51.1992v-512h-51.1992v512zM0 166.4v51.1992h512v-51.1992h-512z" />
    <glyph glyph-name="uniF11A" unicode="&#xf11a;" 
d="M40.5928 166.362c0 154.709 76.5547 231.265 231.265 231.265s231.265 -76.5547 231.265 -231.265s-76.5547 -231.265 -231.265 -231.265s-231.265 76.5547 -231.265 231.265zM35.1553 166.362c0 -157.269 79.4346 -236.702 236.702 -236.702
s236.702 79.4336 236.702 236.702c0 157.268 -79.4346 236.701 -236.702 236.701s-236.702 -79.4336 -236.702 -236.701zM273.048 422.358q106.04 0 181.019 -74.9799q74.9791 -74.9799 74.9791 -181.017q0 -106.037 -74.9804 -181.017q-74.9804 -74.98 -181.018 -74.98
q-106.04 0 -181.021 74.9798t-74.9808 181.017q0 106.037 74.9809 181.017q74.9809 74.9801 181.021 74.9801zM272.162 -57.6172q92.7751 0 158.376 65.6006q65.6006 65.6006 65.5969 158.372q0 92.7749 -65.603 158.377q-65.603 65.6018 -158.376 65.6018
q-92.7742 0 -158.376 -65.603q-65.6017 -65.603 -65.6017 -158.375q0 -92.7715 65.6038 -158.372t158.38 -65.6006zM403.273 176.507q0 -11.646 -8.23242 -19.8623q-8.2207 -8.23315 -19.8562 -8.23315t-19.8723 8.23315l-81.2588 81.2637l-81.2637 -81.2637
q-8.22876 -8.23315 -19.8661 -8.23315t-19.8624 8.23315q-8.22949 8.2251 -8.22949 19.8629q0 11.6378 8.22949 19.8666l101.131 101.131q8.23419 8.22656 19.8613 8.22656q11.6416 0 19.873 -8.23145l101.12 -101.131q8.22656 -8.22656 8.22656 -19.8623zM302.147 249.816
v-197.189q0 -11.5243 -8.22799 -19.6733q-8.22799 -8.14896 -19.8658 -8.14896q-11.6344 0 -19.8641 8.14946t-8.22968 19.6728v197.189q0 11.5204 8.22822 19.6684q8.22822 8.148 19.8655 8.148q11.6365 0.00366157 19.8651 -8.14575q8.22865 -8.14941 8.22865 -19.6707z
" />
    <glyph glyph-name="uniF11B" unicode="&#xf11b;" 
d="M256 448c141.158 0 256 -114.842 256 -256s-114.842 -256 -256 -256s-256 114.842 -256 256s114.842 256 256 256zM476.329 196.746c-2.50391 117.76 -97.8281 213.079 -215.588 215.583v-89.877c29.0352 -1.04395 55.6748 -11.6016 76.8975 -28.6611l32.2041 32.2041
c5.56055 5.56055 14.5869 5.56543 20.1475 0s5.56055 -14.5869 0 -20.1465l-32.2051 -32.2051c17.0605 -21.2227 27.6182 -47.8613 28.667 -76.8975h89.877zM260.746 312.955v-96.0615l70.1387 70.1387c-19.4658 15.3701 -43.7246 24.8984 -70.1387 25.9229z
M251.254 207.396v105.555c-62.9863 -2.44238 -113.762 -53.2178 -116.204 -116.204h107.571c0.681641 1.94043 1.75684 3.77344 3.30762 5.3252zM242.616 187.249h-107.571c2.44727 -62.9863 53.2178 -113.757 116.204 -116.204v107.571
c-1.94043 0.686523 -3.76855 1.75586 -5.32031 3.30762c-1.55078 1.55664 -2.62109 3.38965 -3.3125 5.3252zM260.746 178.616v-107.571c62.9912 2.44727 113.767 53.2178 116.204 116.204h-105.555l-5.32422 -5.3252c-1.55176 -1.55176 -3.38477 -2.62109 -5.3252 -3.30762
zM280.894 196.746h96.0566c-1.02441 26.4141 -10.5527 50.6777 -25.9229 70.1387zM251.254 412.329c-117.76 -2.50391 -213.079 -97.8232 -215.583 -215.583h89.8818c2.45215 68.2246 57.4766 123.249 125.701 125.701v89.8818zM35.6709 187.249
c2.50391 -117.755 97.8232 -213.074 215.583 -215.578v89.877c-68.2246 2.45703 -123.249 57.4766 -125.701 125.701h-89.8818zM260.746 -28.3291c117.755 2.50391 213.079 97.8232 215.583 215.578h-89.877c-2.46191 -68.2246 -57.4814 -123.249 -125.706 -125.701v-89.877
zM283.679 348.856c0 8.9668 4.4834 13.4502 13.4502 13.4502s13.4502 -4.4834 13.4502 -13.4502s-4.4834 -13.4502 -13.4502 -13.4502s-13.4502 4.4834 -13.4502 13.4502zM210.872 256.666c0 7.64909 3.82487 11.4736 11.4746 11.4736
c7.64909 0 11.4736 -3.82454 11.4736 -11.4736c0 -7.64974 -3.82454 -11.4746 -11.4736 -11.4746c-7.64974 0 -11.4746 3.82487 -11.4746 11.4746zM82.6826 277.637c0 13.9779 6.98893 20.9668 20.9668 20.9668c13.9772 0 20.9658 -6.98893 20.9658 -20.9668
c0 -13.9772 -6.98861 -20.9658 -20.9658 -20.9658c-13.9779 0 -20.9668 6.98861 -20.9668 20.9658z" />
    <glyph glyph-name="uniF11C" unicode="&#xf11c;" 
d="M508.902 231.987c2.02734 -13.1846 3.09766 -26.6143 3.09277 -39.957c0 -13.3828 -1.07031 -26.833 -3.10254 -39.9922c-0.517578 -3.49121 -3.14941 -6.32812 -6.58008 -7.13184l-26.6699 -6.43555c-15.4727 -3.73242 -26.7773 -12.3652 -31.6924 -24.3047
c-4.99707 -11.9551 -3.11816 -26.0254 5.24316 -39.6396l14.2891 -23.3418c1.82324 -3 1.65918 -6.85059 -0.418945 -9.69238c-15.8008 -21.7393 -34.8115 -40.7598 -56.5615 -56.5498c-2.83594 -2.09961 -6.68652 -2.24316 -9.69727 -0.369141l-23.3467 14.2393
c-8.51953 5.19629 -17.3975 7.98145 -25.8096 7.98145c-18.3711 0 -32.9834 -13.2295 -38.1289 -34.4316l-6.36426 -26.6699c-0.860352 -3.44043 -3.69141 -6.01074 -7.17285 -6.59961c-13.1738 -2.02734 -26.6143 -3.09766 -39.9521 -3.09766
c-13.3828 0 -26.8281 1.07031 -40.002 3.09766c-3.48145 0.588867 -6.31348 3.15918 -7.12207 6.59961l-6.43066 26.6699c-5.12988 21.2021 -19.7578 34.4316 -38.1289 34.4316c-8.40137 0 -17.2949 -2.78516 -25.8047 -7.98145l-23.3525 -14.2393
c-2.99512 -1.87402 -6.85059 -1.73047 -9.69141 0.369141c-21.7402 15.79 -40.751 34.8105 -56.5459 56.5498c-2.08887 2.8418 -2.24707 6.69238 -0.429688 9.69238l14.3047 23.3418c8.3457 13.6143 10.1738 27.6846 5.23828 39.6396
c-4.92578 11.9395 -16.1797 20.5723 -31.6934 24.3047l-26.6797 6.43555c-3.42578 0.814453 -6.05176 3.64062 -6.58496 7.13184c-2.03223 13.1641 -3.10742 26.6143 -3.10742 39.9922c0 13.3428 1.0752 26.7725 3.10742 39.957
c0.538086 3.52246 3.16504 6.31836 6.58496 7.16309l26.6797 6.43066c15.5137 3.70117 26.7676 12.3135 31.6934 24.2686c4.93555 11.9346 3.11328 26.0303 -5.23828 39.6182l-14.3047 23.3525c-1.81738 2.99512 -1.66406 6.85547 0.429688 9.69727
c15.8008 21.7393 34.8057 40.7559 56.5459 56.5508c2.84082 2.07324 6.69629 2.24707 9.69141 0.424805l23.3525 -14.2998c8.50977 -5.20215 17.4033 -7.91602 25.8047 -7.91602c18.3711 0 32.999 13.1641 38.1289 34.3711l6.42578 26.6748
c0.808594 3.41504 3.63965 6.04199 7.12207 6.56934c26.3467 4.13672 53.6064 4.13672 79.9531 0c3.47656 -0.527344 6.31836 -3.1543 7.17871 -6.56934l6.36426 -26.6748c5.14551 -21.207 19.7627 -34.3711 38.123 -34.3711c8.41797 0 17.3008 2.71387 25.8203 7.91602
l23.3418 14.2998c3.01074 1.82227 6.86133 1.64844 9.69238 -0.424805c21.75 -15.7949 40.7607 -34.8057 56.5605 -56.5508c2.0791 -2.8418 2.24805 -6.70215 0.419922 -9.69727l-14.29 -23.3525c-8.3457 -13.5928 -10.2295 -27.6836 -5.2373 -39.6182
c4.91504 -11.9551 16.2197 -20.5674 31.6982 -24.2686l26.6641 -6.43066c3.44141 -0.844727 6.05762 -3.64062 6.58984 -7.16309zM492.452 160.491c1.34668 10.4502 2.09863 20.9873 2.08887 31.5449c0 10.4902 -0.742188 21.0938 -2.09473 31.498l-20.8789 5.02734
c-21.0996 5.08496 -36.6904 17.3525 -43.8174 34.5908c-7.11133 17.2393 -4.8125 36.9463 6.4873 55.4189l11.249 18.3145c-12.8564 16.7627 -27.8535 31.7598 -44.6162 44.6104l-18.3135 -11.1924c-11.2441 -6.91699 -23.2861 -10.5518 -34.8477 -10.5518
c-26.5107 0 -48.1582 18.79 -55.1729 47.8203l-5.02734 20.8848c-20.8232 2.74414 -42.1895 2.74414 -63.0225 0l-5.0332 -20.8848c-7.02441 -29.0303 -28.6562 -47.8203 -55.1113 -47.8203c-11.6074 0 -23.6592 3.63965 -34.9082 10.5518l-18.3145 11.1924
c-16.7471 -12.8506 -31.7588 -27.8477 -44.5596 -44.6104l11.1465 -18.3145c11.3457 -18.4727 13.6504 -38.1797 6.52832 -55.4189c-7.1582 -17.2383 -22.6924 -29.501 -43.7861 -34.5908l-20.8945 -5.02734c-1.38281 -10.4043 -2.0332 -21.0078 -2.0332 -31.498
c0 -10.5527 0.645508 -21.0947 2.0332 -31.5449l20.8994 -5.01758c21.0889 -5.08398 36.6289 -17.3613 43.7861 -34.5908c7.12695 -17.249 4.82324 -36.9102 -6.52832 -55.4336l-11.1406 -18.3145c12.7998 -16.7578 27.8115 -31.6982 44.5596 -44.5547l18.3135 11.1982
c11.2441 6.85059 23.2969 10.501 34.9082 10.501c26.4551 0 48.0879 -18.7393 55.1123 -47.8213l5.0332 -20.8896c20.833 -2.72363 42.2041 -2.72363 63.0264 0l5.02832 20.8896c7.00879 29.082 28.6514 47.8213 55.1113 47.8213
c11.6172 0 23.6699 -3.65039 34.9082 -10.501l18.3096 -11.1982c16.7725 12.8564 31.7588 27.7969 44.6152 44.5547l-11.2539 18.3145c-11.2891 18.5234 -13.6035 38.1846 -6.48145 55.4336c7.13184 17.2295 22.7227 29.5068 43.8223 34.5908zM256.03 115.835
c-42.04 0 -76.1904 34.1709 -76.1953 76.1953c0 41.9893 34.1553 76.1504 76.1953 76.1504c41.9844 0 76.1553 -34.1611 76.1553 -76.1504c0 -42.0244 -34.1709 -76.1953 -76.1553 -76.1953zM256.03 250.731c-32.4043 0 -58.6904 -26.3574 -58.6904 -58.7012
c0 -32.3984 26.2812 -58.6953 58.6904 -58.6953c32.3438 0 58.6914 26.291 58.6914 58.6953c0 32.3438 -26.3535 58.7012 -58.6914 58.7012z" />
    <glyph glyph-name="uniF11D" unicode="&#xf11d;" 
d="M365.896 173.578l60.9824 45.7373v-182.948c0 -15.5635 -14.6104 -30.4912 -30.4912 -30.4912h-365.896c-18.0723 0 -30.4912 15.4678 -30.4912 30.4912v304.913c0 15.0234 17.3418 30.4912 30.4912 30.4912h182.948
c-25.2822 -9.6875 -45.2295 -46.7529 -45.7373 -60.9824h-106.72v-243.931h304.913v106.72zM335.404 204.069v76.2285c-5.39941 -0.857422 -108.148 -1.52441 -137.211 -91.4736c-7.84473 157.888 66.6367 182.947 137.211 182.947v76.2285l167.702 -121.965z" />
    <glyph glyph-name="uniF11E" unicode="&#xf11e;" 
d="M80.1836 448h351.277v-108.772c0 -98.3887 -78.6191 -178.146 -175.656 -178.146c-97.0029 0 -175.621 79.7568 -175.621 178.146v108.772zM137.538 283.758h-56.5371c-44.6611 0 -81.001 36.8379 -81.001 82.1035c0 45.2646 36.3398 82.1387 80.9658 82.1387h56.5371
v-164.242h0.0351562zM80.9658 410.948c-24.5 0 -44.4473 -20.1963 -44.4473 -45.0869c0 -24.8555 19.9473 -45.0527 44.4473 -45.0527h20.0186v90.1396h-20.0186zM374.497 448h56.5371c44.6611 0 80.9658 -36.8379 80.9658 -82.1387
c0 -45.3018 -36.3047 -82.1396 -80.9658 -82.1396h-56.5371v164.278zM411.016 410.948v-90.1396h20.0186c24.5 0 44.4473 20.1973 44.4473 45.0527c0 24.8545 -19.9473 45.0869 -44.4473 45.0869h-20.0186zM171.532 21.2686c0 47.2207 37.7627 85.5166 84.3076 85.5166
c46.5459 0 84.3086 -38.2959 84.3086 -85.5166h-168.616zM278.1 81.752h-44.1631v115.812h44.1631v-115.812z" />
    <glyph glyph-name="uniF11F" unicode="&#xf11f;" 
d="M512 398.748c-14.0859 -21.0703 -31.8887 -39.5693 -52.4189 -54.3613c0.206055 -4.51367 0.306641 -9.04883 0.306641 -13.5898c0 -138.813 -105.661 -298.886 -298.869 -298.886c-59.3418 0 -114.543 17.3965 -161.024 47.21
c8.21973 -0.985352 16.5791 -1.48633 25.0547 -1.48633c49.2139 0 94.498 16.7959 130.454 44.9727c-45.957 0.839844 -84.7637 31.2148 -98.1309 72.9434c6.42773 -1.23047 13 -1.88672 19.7617 -1.88672c9.58887 0 18.8721 1.28516 27.6758 3.68945
c-48.0439 9.65039 -84.2627 52.1016 -84.2627 103.001c0 0.445312 0 0.879883 0.0107422 1.31348c14.1641 -7.86914 30.3701 -12.583 47.5771 -13.1279c-28.1816 18.8438 -46.7256 50.9883 -46.7256 87.4297c0 19.25 5.18652 37.292 14.2305 52.8076
c51.7959 -63.5547 129.219 -105.377 216.509 -109.751c-1.79199 7.68555 -2.71582 15.7051 -2.71582 23.9355c0 58.0117 47.0322 105.038 105.044 105.038c30.208 0 57.5107 -12.75 76.6777 -33.1738c23.9189 4.71289 46.4023 13.4561 66.7041 25.4883
c-7.84668 -24.5264 -24.5029 -45.1113 -46.1963 -58.1123c21.2529 2.54395 41.4883 8.18652 60.3379 16.5459z" />
    <glyph glyph-name="uniF120" unicode="&#xf120;" 
d="M512 398.748c-14.0859 -21.0703 -31.8887 -39.5693 -52.4189 -54.3613c0.206055 -4.51367 0.306641 -9.04883 0.306641 -13.5898c0 -138.813 -105.661 -298.886 -298.869 -298.886c-59.3418 0 -114.543 17.3965 -161.024 47.21
c8.21973 -0.985352 16.5791 -1.48633 25.0547 -1.48633c49.2139 0 94.498 16.7959 130.454 44.9727c-45.957 0.839844 -84.7637 31.2148 -98.1309 72.9434c6.42773 -1.23047 13 -1.88672 19.7617 -1.88672c9.58887 0 18.8721 1.28516 27.6758 3.68945
c-48.0439 9.65039 -84.2627 52.1016 -84.2627 103.001c0 0.445312 0 0.879883 0.0107422 1.31348c14.1641 -7.86914 30.3701 -12.583 47.5771 -13.1279c-28.1816 18.8438 -46.7256 50.9883 -46.7256 87.4297c0 19.25 5.18652 37.292 14.2305 52.8076
c51.7959 -63.5547 129.219 -105.377 216.509 -109.751c-1.79199 7.68555 -2.71582 15.7051 -2.71582 23.9355c0 58.0117 47.0322 105.038 105.044 105.038c30.208 0 57.5107 -12.75 76.6777 -33.1738c23.9189 4.71289 46.4023 13.4561 66.7041 25.4883
c-7.84668 -24.5264 -24.5029 -45.1113 -46.1963 -58.1123c21.2529 2.54395 41.4883 8.18652 60.3379 16.5459z" />
    <glyph glyph-name="uniF121" unicode="&#xf121;" 
d="M56.8799 354.934l36.2139 36.2129l362.053 -362.053l-36.2129 -36.2139zM93.0938 -7.12012l-36.2139 36.2139l362.026 362.053l36.2139 -36.2129z" />
  </font>
</defs>
</svg>
